<?xml version="1.0" encoding="utf-8"?>
<!-- Generator: Adobe Illustrator 16.0.0, SVG Export Plug-In . SVG Version: 6.00 Build 0)  -->
<!DOCTYPE svg PUBLIC "-//W3C//DTD SVG 1.1//EN" "http://www.w3.org/Graphics/SVG/1.1/DTD/svg11.dtd">
<svg version="1.1" id="图层_1" xmlns="http://www.w3.org/2000/svg" xmlns:xlink="http://www.w3.org/1999/xlink" x="0px" y="0px"
	 width="2407.16px" height="1163.006px" viewBox="0 0 2407.16 1163.006" enable-background="new 0 0 2407.16 1163.006"
	 xml:space="preserve">
<g>
	<path d="M-1482.578,62.57L-1482.578,62.57c11.111,0,20,8.889,20,21.111v351.111c0,11.11-8.889,21.11-20,21.11l0,0
		c-11.111,0-20-8.889-20-21.11V82.57C-1502.578,71.459-1494.8,62.57-1482.578,62.57"/>
	<path d="M-1418.132,62.57L-1418.132,62.57c11.111,0,20,8.889,20,21.111v351.111c0,11.11-8.889,21.11-20,21.11l0,0
		c-11.111,0-20-8.889-20-21.11V82.57C-1439.244,71.459-1430.355,62.57-1418.132,62.57"/>
	<path d="M-1353.688,62.57L-1353.688,62.57c11.111,0,20,8.889,20,21.111v351.111c0,11.11-8.889,21.11-20,21.11l0,0
		c-11.111,0-20-8.889-20-21.11V82.57C-1374.8,71.459-1365.912,62.57-1353.688,62.57"/>
	<path d="M-1289.244,62.57L-1289.244,62.57c11.111,0,20,8.889,20,21.111v131.111c0,11.11-8.889,21.11-20,21.11l0,0
		c-11.111,0-20-8.889-20-21.11V82.57C-1310.355,71.459-1301.466,62.57-1289.244,62.57"/>
	<path d="M-1547.021,454.792L-1547.021,454.792c-11.111,0-20-8.89-20-21.11v-130c0-11.111,8.889-21.111,20-21.111l0,0
		c11.111,0,20,8.889,20,21.111v131.11C-1527.021,445.903-1535.91,454.792-1547.021,454.792"/>
	<g>
		<path d="M-899.244,301.458c-42.224-20-72.224-52.222-92.224-96.666h-7.776c-14.445,41.11-46.668,73.333-96.667,97.777
			c-3.332-8.889-7.775-16.667-16.666-21.111c40-17.776,68.888-42.222,85.554-76.666h-76.664v-23.334h85.554
			c4.443-13.333,6.666-30,6.666-44.444v-11.111h-77.776V102.57h185.554v23.333h-83.334v6.667c0,18.889-2.221,34.444-5.555,50
			h102.224v23.333h-74.445c17.777,36.667,44.445,62.223,83.334,75.556C-891.467,289.237-897.023,295.903-899.244,301.458z"/>
		<path d="M-732.578,138.126l-5.556-20h-18.891c-6.666,8.889-16.666,20-28.889,31.111c-3.332-8.889-8.89-14.444-14.443-20
			c17.777-10,31.111-26.667,42.223-48.889l21.109,5.556c3.334,0,4.445,1.111,3.334,4.444c-1.11,2.222-3.333,3.333-6.665,2.222
			l-1.111,2.222c0,1.111-1.11,2.222-3.334,4.444h62.224v18.889h-34.445l4.444,14.445L-732.578,138.126z M-765.912,233.681v-94.445
			h164.444v94.445h-24.444v12.222h55.557v18.89h-55.557v35.556h-22.222v-35.556h-66.668c-4.442,20-24.442,32.223-57.776,38.89
			c-3.334-7.778-8.89-14.444-16.666-21.111c28.889-2.223,44.442-7.777,50-18.889h-56.668v-18.89h60V232.57
			C-735.912,233.681-765.912,233.681-765.912,233.681z M-743.689,155.903v10h121.111v-10H-743.689z M-743.689,180.348v10h121.111
			v-10H-743.689z M-743.689,205.903v10h121.111v-10C-623.689,205.903-743.689,205.903-743.689,205.903z M-712.578,233.681v12.222
			h65.555v-12.222H-712.578L-712.578,233.681z M-625.912,138.126l-6.666-20h-23.334c-3.332,7.778-8.89,14.444-14.443,21.111
			c-6.668-4.444-14.445-7.778-23.334-8.889c14.445-11.111,25.557-27.778,32.223-46.667l21.111,2.222
			c2.223,1.111,3.332,2.222,3.332,4.444c-1.109,2.223-3.332,3.334-6.666,2.223c-1.111,3.333-1.111,5.556-3.334,7.778h70v18.889
			h-36.666l5.557,14.445L-625.912,138.126z"/>
	</g>
	<g>
		<path d="M-1113.688,434.792v-2.223h3.332c2.223,0,4.445,0,5.557-1.111c1.112-1.11,2.222-2.222,3.332-3.333
			c0-1.11,1.111-3.333,1.111-8.889v-61.111c0-4.443,0-7.777-1.111-8.889c0-1.111-1.11-2.223-3.332-3.334
			c-1.11-1.11-3.334-1.11-5.557-1.11h-3.332v-2.223h41.109c11.11,0,20,1.111,26.666,4.444c7.778,3.333,14.444,8.889,18.889,17.777
			c4.445,7.778,6.668,16.667,6.668,25.556c0,6.667-1.111,12.223-3.334,18.89c-2.223,5.556-4.443,10-7.777,13.333
			s-6.666,6.667-11.11,8.889c-4.445,2.224-8.89,3.334-16.666,4.444c-2.224,0-6.668,1.111-12.223,1.111h-41.11
			C-1113.688,435.903-1113.688,434.792-1113.688,434.792z M-1078.133,348.125v72.223c0,3.334,0,5.556,0,6.667
			c0,1.11,1.109,1.11,2.222,2.223c1.11,1.11,3.334,1.11,5.557,1.11c7.777,0,13.332-2.223,17.777-7.777
			c5.555-6.667,7.776-18.889,7.776-32.223c0-11.11-2.223-22.223-5.555-28.89c-3.334-5.556-6.668-8.889-11.111-11.11
			C-1064.801,348.125-1070.355,348.125-1078.133,348.125z"/>
		<path d="M-983.689,348.125v37.777h2.223c5.556,0,10-2.222,12.224-5.556c2.221-3.333,4.442-8.89,4.442-16.666h2.224v48.889h-2.224
			c0-5.556-1.11-8.889-3.332-12.223c-2.223-3.333-3.334-5.556-5.557-6.666c-2.223-1.111-5.555-2.224-10-2.224v26.667
			c0,4.444,0,7.777,1.111,8.89c0,1.11,1.11,2.223,2.223,2.223c1.111,1.11,3.332,1.11,5.555,1.11h5.558
			c8.889,0,16.666-2.223,21.11-5.556c5.556-3.334,8.89-10.001,11.109-18.89h2.223l-4.442,30h-81.112v-2.222h3.332
			c2.223,0,4.445,0,6.668-1.111c1.111-1.111,2.223-2.223,2.223-3.333c0-1.111,1.109-3.334,1.109-8.89v-61.11
			c0-4.444,0-6.667,0-7.778s-1.109-3.333-2.221-3.333c-1.111-1.11-4.445-2.223-6.668-2.223h-4.443v-2.222h76.666v27.776h-2.223
			c-1.111-6.666-3.332-11.111-5.556-14.444c-2.223-3.332-5.557-4.443-10-6.666c-2.223,0-6.666,0-13.334,0h-8.889L-983.689,348.125
			L-983.689,348.125z"/>
		<path d="M-848.133,402.57l-3.334,32.223h-82.223v-2.223h3.334c2.223,0,4.443,0,6.666-1.111c1.111-1.11,2.223-2.222,2.223-3.333
			c0-1.11,1.111-3.333,1.111-8.889v-61.111c0-4.443,0-7.777-1.111-8.889c0-1.111-1.11-2.223-3.334-3.334
			c-1.11-1.11-3.332-1.11-5.555-1.11h-3.334v-2.223h50v2.223h-4.443c-2.223,0-4.444,0-6.668,1.11
			c-1.11,1.111-2.223,2.223-2.223,3.334c0,1.11-1.109,3.333-1.109,8.889v58.89c0,4.443,0,7.777,1.109,8.889
			c0,1.111,1.111,2.223,3.334,3.334c1.111,0,3.334,1.11,7.777,1.11h7.778c4.443,0,8.89-1.11,12.222-2.223
			c3.334-2.223,5.557-4.443,7.776-7.777c2.224-3.333,4.445-8.89,6.668-16.666L-848.133,402.57L-848.133,402.57z"/>
		<path d="M-813.689,392.57v25.556c0,4.444,0,7.777,1.111,8.89c1.11,1.111,1.11,2.223,3.334,3.333c1.11,1.11,4.442,1.11,8.889,1.11
			v2.224h-46.668v-2.224c4.445,0,6.668,0,8.891-1.11c1.109-1.11,2.222-2.223,3.332-3.333c1.111-1.111,1.111-4.444,1.111-8.89v-60
			c0-4.443,0-7.777-1.111-8.889c-1.11-1.111-1.11-2.223-3.332-3.334c-1.11-1.11-4.444-1.11-8.891-1.11v-2.223h40
			c13.334,0,23.334,2.223,28.891,6.667c5.556,4.444,8.89,10,8.89,18.889c0,5.557-2.224,11.111-5.558,14.444
			c-3.332,4.444-8.889,6.667-14.442,8.889C-794.801,392.57-802.578,392.57-813.689,392.57z M-813.689,348.125v40
			c1.111,0,2.223,0,3.334,0c5.555,0,10-1.11,12.223-4.443c3.332-3.334,4.443-7.778,4.443-14.444c0-6.667-1.111-11.111-4.443-14.444
			c-3.334-3.334-6.668-4.444-13.334-4.444h-2.223C-813.689,349.237-813.689,348.125-813.689,348.125z"/>
		<path d="M-734.801,390.347v28.89c0,4.444,0,7.777,1.111,8.889c0,1.111,1.111,2.223,3.334,3.333
			c1.111,1.111,3.332,1.111,5.555,1.111h3.334v2.222h-48.889v-2.222h3.332c2.223,0,4.445,0,6.668-1.111
			c1.111-1.11,2.223-2.222,2.223-3.333c0-1.11,1.109-3.333,1.109-8.889v-61.111c0-4.443,0-7.777-1.109-8.889
			c0-1.111-1.11-2.223-3.334-3.334c-1.11-1.11-3.334-1.11-5.557-1.11h-3.332v-2.223h48.889v2.223h-3.334
			c-2.223,0-4.442,0-6.666,1.11c-1.11,1.111-2.223,2.223-2.223,3.334c0,1.11-1.111,3.333-1.111,8.889v26.667h32.224v-26.667
			c0-4.443,0-7.777-1.111-8.889c0-1.111-1.111-2.223-3.334-3.334c-1.109-1.11-3.332-1.11-5.555-1.11h-3.334v-2.223h48.889v2.223
			h-3.333c-2.223,0-4.445,0-6.668,1.11c-1.109,1.111-2.221,2.223-2.221,3.334c0,1.11-1.111,3.333-1.111,8.889v61.111
			c0,4.444,0,7.777,1.111,8.889c0,1.111,1.11,2.223,3.332,3.333c1.111,1.111,3.334,1.111,5.557,1.111h3.332v2.222h-48.889v-2.222
			h3.334c2.223,0,4.444,0,6.666-1.111c1.11-1.11,2.223-2.222,2.223-3.333c0-1.11,1.111-3.333,1.111-8.889v-28.89H-734.801
			L-734.801,390.347z"/>
		<path d="M-572.578,341.458v2.224c-3.334,0-5.556,1.11-6.666,2.222c-2.224,2.223-5.558,6.667-10,16.667l-20,33.333v22.223
			c0,4.444,0,7.777,1.11,8.89c0,1.11,1.109,2.223,3.332,3.333c1.111,1.11,3.334,1.11,5.558,1.11h4.442v2.224h-52.223v-2.224h4.444
			c2.224,0,4.445,0,6.666-1.11c1.111-1.11,2.224-2.223,2.224-3.333c0-1.111,1.111-3.333,1.111-8.89v-18.889l-22.224-40
			c-4.442-7.778-6.666-12.223-8.889-13.334s-4.443-2.222-6.666-2.222v-3.334h44.443v2.222h-3.332c-2.224,0-4.445,0-5.558,1.111
			c-1.112,1.11-1.11,1.11-1.11,2.222s2.223,5.556,5.557,12.223l17.777,31.111l16.666-27.778c4.444-6.666,5.557-11.11,5.557-13.333
			c0-1.11-1.111-2.223-2.223-3.333c-1.109-1.111-4.443-2.223-7.775-2.223v-2.223L-572.578,341.458L-572.578,341.458z"/>
	</g>
</g>
<g>
	<g>
		<g>
			<path fill="#FFFFFF" d="M278.109,557.263c-1.716,11.008-2.618,22.283-2.618,33.77c0,11.488,0.9,22.764,2.618,33.772V557.263z"/>
			<path fill="#FFFFFF" d="M286.874,521.508c-2.939,8.703-5.346,17.65-7.168,26.809v85.434c1.823,9.157,4.229,18.106,7.168,26.81
				V521.508z"/>
			<path fill="#FFFFFF" d="M295.633,499.654c-2.624,5.643-5.029,11.404-7.166,17.298v148.166c2.137,5.891,4.542,11.654,7.166,17.296
				V499.654z"/>
			<path fill="#FFFFFF" d="M304.395,482.776c-2.541,4.416-4.935,8.925-7.167,13.529v189.458c2.232,4.602,4.627,9.108,7.167,13.525
				V482.776z"/>
			<path fill="#FFFFFF" d="M313.158,468.874c-2.501,3.67-4.897,7.416-7.168,11.238v221.843c2.271,3.822,4.667,7.567,7.168,11.239
				V468.874z"/>
			<path fill="#FFFFFF" d="M321.919,456.949c-2.481,3.149-4.872,6.364-7.168,9.653v248.865c2.297,3.293,4.688,6.499,7.168,9.655
				V456.949z"/>
			<path fill="#FFFFFF" d="M330.678,446.506c-2.459,2.76-4.854,5.568-7.167,8.45v272.152c2.313,2.884,4.709,5.693,7.167,8.451
				V446.506z"/>
			<path fill="#FFFFFF" d="M339.442,437.254c-2.451,2.443-4.846,4.937-7.168,7.494v292.574c2.322,2.555,4.717,5.049,7.168,7.493
				V437.254z"/>
			<path fill="#FFFFFF" d="M348.203,428.988c-2.439,2.183-4.835,4.41-7.167,6.702v310.688c2.332,2.29,4.728,4.519,7.167,6.703
				V428.988z"/>
			<path fill="#FFFFFF" d="M356.963,421.569c-2.433,1.96-4.824,3.959-7.167,6.022v326.882c2.344,2.065,4.734,4.064,7.167,6.021
				V421.569z"/>
			<path fill="#FFFFFF" d="M365.725,414.893c-2.426,1.765-4.821,3.566-7.167,5.419v341.445c2.345,1.852,4.74,3.653,7.167,5.418
				V414.893z"/>
			<path fill="#FFFFFF" d="M374.486,408.889c-2.42,1.58-4.816,3.201-7.167,4.871v354.545c2.351,1.675,4.748,3.29,7.167,4.872
				V408.889z"/>
			<path fill="#FFFFFF" d="M383.245,403.505c-2.416,1.417-4.811,2.87-7.167,4.384v366.293c2.356,1.508,4.751,2.963,7.167,4.382
				V403.505z"/>
			<path fill="#FFFFFF" d="M392.007,398.664c-2.413,1.269-4.806,2.572-7.166,3.937v376.868c2.36,1.36,4.753,2.665,7.166,3.936
				V398.664z"/>
			<path fill="#FFFFFF" d="M400.769,394.326c-2.406,1.134-4.801,2.299-7.167,3.518v386.38c2.365,1.22,4.761,2.385,7.167,3.521
				V394.326z"/>
			<path fill="#FFFFFF" d="M409.531,390.456c-2.406,1.005-4.805,2.041-7.169,3.129v394.899c2.365,1.085,4.763,2.124,7.169,3.128
				V390.456z"/>
			<path fill="#FFFFFF" d="M418.293,387.023c-2.408,0.884-4.803,1.802-7.167,2.769v402.483c2.364,0.967,4.759,1.882,7.167,2.769
				V387.023z"/>
			<path fill="#FFFFFF" d="M427.051,384.015c-2.407,0.771-4.789,1.573-7.167,2.424v409.195c2.377,0.846,4.76,1.648,7.167,2.423
				V384.015z"/>
			<path fill="#FFFFFF" d="M435.818,381.407c-2.412,0.659-4.798,1.351-7.171,2.092v415.071c2.374,0.743,4.76,1.434,7.171,2.091
				V381.407z"/>
			<path fill="#FFFFFF" d="M444.581,379.215c-2.401,0.553-4.799,1.14-7.174,1.771v420.093c2.375,0.636,4.773,1.218,7.174,1.77
				V379.215z"/>
			<path fill="#FFFFFF" d="M453.342,377.422c-2.402,0.449-4.798,0.923-7.172,1.453v424.323c2.374,0.524,4.771,0.999,7.172,1.445
				V377.422z"/>
			<path fill="#FFFFFF" d="M462.102,375.982c-2.399,0.348-4.796,0.725-7.172,1.153v427.797c2.376,0.429,4.773,0.803,7.172,1.151
				V375.982z"/>
			<path fill="#FFFFFF" d="M470.864,374.884c-2.399,0.249-4.792,0.54-7.173,0.865v430.569c2.381,0.326,4.773,0.615,7.173,0.865
				V374.884z"/>
			<path fill="#FFFFFF" d="M479.631,374.184c-2.407,0.151-4.798,0.332-7.172,0.563v432.576c2.375,0.23,4.765,0.412,7.172,0.566
				V374.184z"/>
			<path fill="#FFFFFF" d="M488.385,373.805c-2.401,0.059-4.786,0.142-7.166,0.278v433.898c2.382,0.141,4.765,0.221,7.166,0.282
				V373.805z"/>
			<path fill="#FFFFFF" d="M497.153,373.794c-1.455-0.03-2.907-0.056-4.365-0.056c-0.939,0-1.872,0.032-2.808,0.045v434.503
				c0.937,0.013,1.869,0.043,2.808,0.043c1.458,0,2.91-0.023,4.365-0.06V373.794z"/>
			<path fill="#FFFFFF" d="M505.911,374.148c-2.379-0.145-4.768-0.262-7.169-0.325v434.422c2.402-0.066,4.791-0.184,7.169-0.327
				V374.148z"/>
			<path fill="#FFFFFF" d="M514.676,374.861c-2.387-0.236-4.771-0.453-7.171-0.613v433.571c2.399-0.163,4.784-0.375,7.171-0.611
				V374.861z"/>
			<path fill="#FFFFFF" d="M523.436,375.932c-2.384-0.333-4.765-0.647-7.177-0.903v432.017c2.413-0.261,4.792-0.573,7.177-0.909
				V375.932z"/>
			<path fill="#FFFFFF" d="M532.197,377.368c-2.379-0.436-4.771-0.85-7.179-1.208v429.75c2.408-0.357,4.8-0.772,7.179-1.207V377.368
				z"/>
			<path fill="#FFFFFF" d="M540.955,379.167c-2.376-0.54-4.764-1.049-7.168-1.51v426.753c2.405-0.459,4.791-0.965,7.168-1.506
				V379.167z"/>
			<path fill="#FFFFFF" d="M549.714,381.347c-2.369-0.642-4.759-1.259-7.167-1.821v423.017c2.407-0.563,4.798-1.178,7.167-1.822
				V381.347z"/>
			<path fill="#FFFFFF" d="M558.481,383.922c-2.374-0.753-4.763-1.478-7.172-2.15v418.523c2.409-0.673,4.798-1.396,7.172-2.145
				V383.922z"/>
			<path fill="#FFFFFF" d="M567.243,386.914c-2.378-0.866-4.761-1.707-7.177-2.49v413.221c2.417-0.784,4.799-1.627,7.177-2.491
				V386.914z"/>
			<path fill="#FFFFFF" d="M576.003,390.332c-2.374-0.981-4.754-1.931-7.171-2.831v407.07c2.417-0.903,4.797-1.853,7.171-2.834
				V390.332z"/>
			<path fill="#FFFFFF" d="M584.761,394.209c-2.367-1.107-4.756-2.173-7.169-3.196v400.041c2.413-1.021,4.802-2.086,7.169-3.194
				V394.209z"/>
			<path fill="#FFFFFF" d="M593.528,398.587c-2.367-1.243-4.757-2.448-7.174-3.601v392.097c2.417-1.157,4.807-2.359,7.174-3.6
				V398.587z"/>
			<path fill="#FFFFFF" d="M602.289,403.477c-2.365-1.381-4.751-2.732-7.172-4.028v383.168c2.421-1.295,4.807-2.645,7.172-4.026
				V403.477z"/>
			<path fill="#FFFFFF" d="M611.047,408.923c-2.357-1.54-4.742-3.045-7.167-4.491v373.202c2.425-1.444,4.81-2.949,7.167-4.488
				V408.923z"/>
			<path fill="#FFFFFF" d="M619.812,414.958c-2.367-1.705-4.742-3.373-7.173-4.984v362.12c2.431-1.611,4.806-3.279,7.173-4.986
				V414.958z"/>
			<path fill="#FFFFFF" d="M628.571,421.65c-2.354-1.883-4.735-3.738-7.172-5.527v349.824c2.438-1.788,4.819-3.646,7.172-5.531
				V421.65z"/>
			<path fill="#FFFFFF" d="M637.333,429.074c-2.35-2.093-4.73-4.154-7.175-6.142v336.201c2.445-1.988,4.825-4.046,7.175-6.143
				V429.074z"/>
			<path fill="#FFFFFF" d="M646.095,437.316c-2.343-2.327-4.727-4.613-7.167-6.832v321.103c2.44-2.222,4.824-4.509,7.167-6.835
				V437.316z"/>
			<path fill="#FFFFFF" d="M654.854,446.552c-2.327-2.604-4.712-5.149-7.165-7.637v304.24c2.452-2.492,4.837-5.038,7.165-7.64
				V446.552z"/>
			<path fill="#FFFFFF" d="M663.621,457.021c-2.319-2.944-4.709-5.833-7.178-8.65v285.323c2.469-2.819,4.859-5.703,7.178-8.649
				V457.021z"/>
			<path fill="#FFFFFF" d="M672.378,468.942c-2.296-3.36-4.688-6.665-7.169-9.891v263.962c2.482-3.223,4.873-6.53,7.169-9.889
				V468.942z"/>
			<path fill="#FFFFFF" d="M681.139,482.915c-2.275-3.946-4.659-7.823-7.167-11.601v239.442c2.509-3.781,4.893-7.661,7.167-11.604
				V482.915z"/>
			<path fill="#FFFFFF" d="M689.898,499.785c-2.228-4.785-4.609-9.483-7.167-14.073v210.644c2.558-4.588,4.939-9.284,7.167-14.072
				V499.785z"/>
			<path fill="#FFFFFF" d="M698.66,521.624c-2.12-6.259-4.506-12.396-7.162-18.382v175.582c2.658-5.986,5.042-12.123,7.162-18.382
				V521.624z"/>
			<path fill="#FFFFFF" d="M707.428,557.208c-1.664-10.502-4.063-20.757-7.173-30.699v129.048c3.11-9.941,5.51-20.198,7.173-30.698
				V557.208z"/>
			<path fill="#FFFFFF" d="M709.015,612.176c0.683-6.953,1.069-14.003,1.069-21.144c0-7.137-0.386-14.186-1.069-21.142V612.176z"/>
		</g>
		<g>
			<g>
				<g>
					<path fill="#FFFFFF" d="M488.91,195.414c-0.892,6.977-0.154,14.392,3.878,20.349c-6.825-8.023-12.627,0.651-17.612,5.744
						c2.563-4.553,7.221-16.281-3.045-14.227c-5.096,1.019-13.772,10.89-9.216,15.669c1.208,1.271,4.173,1.74,5.486,0.208
						c1.396-1.635-0.062-4.279-1.944-2.383c0.117-3.538,7.226-2.729,4.64,2.392c-1.561,3.094-5.498,4.263-8.708,2.961
						c-7.47-3.023-2.381-15.133,7.021-22.717c8.198-6.615,20.408-23.134,21.834-37.796
						C493.258,178.204,489.653,189.586,488.91,195.414z"/>
					<path fill="#FFFFFF" d="M496.662,195.414c0.898,6.977,0.16,14.392-3.874,20.349c6.823-8.023,12.62,0.651,17.616,5.744
						c-2.567-4.553-7.224-16.281,3.046-14.227c5.094,1.019,13.772,10.89,9.208,15.669c-1.207,1.271-4.169,1.74-5.485,0.208
						c-1.395-1.635,0.064-4.279,1.946-2.383c-0.121-3.538-7.226-2.729-4.637,2.392c1.558,3.094,5.497,4.263,8.709,2.961
						c7.465-3.023,2.377-15.133-7.025-22.717c-8.193-6.615-20.414-23.134-21.84-37.796
						C492.32,178.204,495.924,189.586,496.662,195.414z"/>
				</g>
				<g>
					<g>
						<path fill="#FFFFFF" d="M483.966,261.542c-7.212,0-20.894-12.962-33.14-17.046c-15.001-5.002-37.217-2.402-47.878-21.186
							c-7.393-13.02-12.149-29.719-28.647-30.107c21.302-6.094,32.344,8.899,34.114,11.421c1.482,2.098,4.033,6.789,6.72,5.429
							c1.658-0.835,2.559-6.138-2.727-10.699c16.296,3.567,21.35,24.237,24.533,26.585c-0.575-2.809-2.418-5.493-0.819-8.396
							c1.517-2.746,5.367-3.924,8.23-3.07c2.596,0.779,5.751,3.832,4.025,6.673c-0.802,1.309-2.924,2.444-4.456,1.687
							c-1.648-0.812-1.439-3.542,0.378-2.509c0.099,0.086,0.099,0.082,0.009-0.022c-1.57,0.666,0.788,2.331,1.289,0.236
							c0.396-1.637-2.106-2.294-3.167-1.255c-5.053,4.925,6.75,10.811,10.521,12.711
							C467.638,238.973,470.515,254.34,483.966,261.542z"/>
						<path fill="#FFFFFF" d="M482.476,267.757c-6.032-3.483-12.233-6.557-18.702-9.153c-8.218-3.302-16.705-5.954-25.299-8.094
							c-17.831-4.433-36.289-7.056-54.667-7.186c-4.797-0.039-9.587,0.13-14.359,0.563c-3.584,0.338-7.228,0.794-10.715,1.719
							c-7.912,2.095-15.729,5.546-22.201,10.623c-5.09,4.004-9.558,9.504-10.011,16.204c-0.253,3.596,0.656,7.278,2.262,10.487
							c0.583,1.184,1.218,2.354,1.948,3.456c0.183,0.275,0.367,0.553,0.546,0.825c0.067,0.103,0.391,0.588,0.319,0.498
							c1.426,1.818,3.005,3.337,4.873,4.703c3.357,2.454,7.846,3.62,11.914,4.03c7.955,0.788,18.102-1.716,21.705-9.664
							c2.637-5.814,1.187-14.201-4.5-17.632c-3.729-2.245-8.584-2.485-12.691-1.213c-3.674,1.143-7.594,4.086-6.529,8.421
							c0.392,1.59,1.386,2.889,2.396,4.142c-1.134-1.215-2.172-2.448-2.718-4.045c-0.646-1.879-0.334-3.828,0.763-5.461
							c2.252-3.337,6.673-4.895,10.522-5.223c4.392-0.375,9.05,0.823,12.237,3.987c2.407,2.388,3.364,5.421,4.031,8.63
							c0.376,3.526,0.268,6.955-1.27,10.211c-1.823,3.849-5.043,6.708-8.809,8.587c-8.037,4.022-18.265,3.877-26.34,0.042
							c-4.396-2.088-7.938-5.438-10.452-9.583c-2.263-3.725-3.997-7.74-4.395-12.127c-0.42-4.555,0.661-9.073,2.905-13.041
							c4.241-7.485,11.824-12.702,19.442-16.326c6.525-3.102,13.385-5.16,20.553-6.06c9.423-1.185,18.967-0.999,28.418-0.313
							c9.198,0.663,18.357,1.997,27.405,3.804c17.18,3.429,34.155,8.809,49.688,16.987
							C474.813,262.702,478.665,265.177,482.476,267.757z"/>
						<path fill="#FFFFFF" d="M380.823,239.716c-1.589-0.251-3.196-0.492-4.734-0.996c-1.989-0.653-3.822-1.787-5.504-3.028
							c-3.002-2.205-5.896-4.97-7.492-8.391c-1.758-3.766-2.208-8.3-0.421-12.139c1.542-3.322,4.584-5.721,8.178-6.441
							c4.157-0.833,9.135,0.493,11.702,4.047c2.344,3.256,2.218,8.348-1.199,10.801c-1.49,1.068-3.5,1.622-5.326,1.265
							c-0.811-0.162-1.696-0.534-2.194-1.241c-0.254-0.365-0.399-0.792-0.408-1.243c0-0.079,0.128-0.788,0.17-0.519
							c0.307,2.074,2.61,2.057,4.181,1.467c1.783-0.668,3.273-2.23,3.377-4.2c0.228-4.47-4.266-6.751-8.21-6.386
							c-3.773,0.354-6.585,3.218-7.082,6.938c-0.294,2.234,0.118,4.56,0.968,6.632c0.791,1.926,2.031,3.564,3.354,5.162
							c1.313,1.606,2.75,3.123,4.314,4.49c1.547,1.355,3.316,2.269,5.142,3.173C380.038,239.308,380.433,239.512,380.823,239.716z"
							/>
						<path fill="#FFFFFF" d="M338.044,233.372c-7.015-0.593-14.105-2.873-19.086-8.062c6.414,8.354-3.282,12.208-9.306,16.023
							c4.984-1.555,17.427-3.65,13.267,5.958c-2.065,4.769-13.533,11.185-17.252,5.725c-0.988-1.447-0.822-4.448,0.948-5.408
							c1.887-1.019,4.171,0.958,1.927,2.403c3.482,0.616,4.178-6.495-1.369-5.042c-3.355,0.877-5.318,4.482-4.725,7.895
							c1.395,7.931,14.305,5.499,23.689-2.104c8.184-6.627,26.893-15.105,41.53-13.429
							C355.78,232.735,343.898,233.864,338.044,233.372z"/>
						<path fill="#FFFFFF" d="M345.627,261.552c6.763-4.501,23.169-7.602,26.749-6.775c-2.662,1.563-5.032,3.953-6.341,5.557
							c9.002-5.924,30.554-5.578,35.537-1.938c3.219,2.348,4.151,5.448,1.843,8.321c-1.759,2.199-5.813,2.57-7.041-0.604
							c0.679,3.363,3.23,4.612,6.751,4.294c2.401-0.215,4.015-1.505,5.521-3.28c1.813-2.127,3.123-3.053,5.656-4.342
							c5.34-2.712,16.845-5.028,39.793,0.774C429.136,254.534,371.892,239.716,345.627,261.552z"/>
					</g>
					<g>
						<path fill="#FFFFFF" d="M501.612,261.542c7.202,0,20.892-12.962,33.136-17.046c15.009-5.002,37.22-2.402,47.881-21.186
							c7.393-13.02,12.146-29.719,28.647-30.107c-21.302-6.094-32.346,8.899-34.117,11.421c-1.48,2.098-4.034,6.789-6.72,5.429
							c-1.653-0.835-2.551-6.138,2.726-10.699c-16.29,3.567-21.341,24.237-24.522,26.585c0.567-2.809,2.416-5.493,0.816-8.396
							c-1.52-2.746-5.376-3.924-8.234-3.07c-2.597,0.779-5.75,3.832-4.022,6.673c0.796,1.309,2.919,2.444,4.461,1.687
							c1.634-0.812,1.431-3.542-0.393-2.509c-0.094,0.086-0.094,0.082-0.004-0.022c1.572,0.666-0.789,2.331-1.288,0.236
							c-0.395-1.637,2.106-2.294,3.18-1.255c5.034,4.925-6.76,10.811-10.529,12.711C517.94,238.973,515.062,254.34,501.612,261.542z
							"/>
						<path fill="#FFFFFF" d="M503.11,267.757c6.022-3.483,12.221-6.557,18.693-9.153c8.228-3.302,16.705-5.954,25.305-8.094
							c17.82-4.433,36.28-7.056,54.665-7.186c4.789-0.039,9.589,0.13,14.355,0.563c3.589,0.338,7.223,0.794,10.712,1.719
							c7.913,2.095,15.74,5.546,22.203,10.623c5.089,4.004,9.556,9.504,10.015,16.204c0.246,3.596-0.659,7.278-2.26,10.487
							c-0.592,1.184-1.224,2.354-1.949,3.456c-0.186,0.275-0.37,0.553-0.545,0.825c-0.073,0.103-0.388,0.588-0.323,0.498
							c-1.434,1.818-3.006,3.337-4.883,4.703c-3.348,2.454-7.838,3.62-11.906,4.03c-7.948,0.788-18.099-1.716-21.705-9.664
							c-2.634-5.814-1.188-14.201,4.512-17.632c3.719-2.245,8.582-2.485,12.677-1.213c3.679,1.143,7.599,4.086,6.532,8.421
							c-0.388,1.59-1.386,2.889-2.387,4.142c1.127-1.215,2.165-2.448,2.715-4.045c0.642-1.879,0.328-3.828-0.77-5.461
							c-2.244-3.337-6.672-4.895-10.521-5.223c-4.392-0.375-9.055,0.823-12.236,3.987c-2.408,2.388-3.366,5.421-4.028,8.63
							c-0.38,3.526-0.269,6.955,1.271,10.211c1.818,3.849,5.041,6.708,8.802,8.587c8.04,4.022,18.268,3.877,26.343,0.042
							c4.391-2.088,7.937-5.438,10.454-9.583c2.261-3.725,3.994-7.74,4.401-12.127c0.412-4.555-0.673-9.073-2.915-13.041
							c-4.242-7.485-11.827-12.702-19.442-16.326c-6.525-3.102-13.386-5.16-20.547-6.06c-9.426-1.185-18.978-0.999-28.432-0.313
							c-9.197,0.663-18.35,1.997-27.396,3.804c-17.18,3.429-34.151,8.809-49.682,16.987
							C510.759,262.702,506.908,265.177,503.11,267.757z"/>
						<path fill="#FFFFFF" d="M604.756,239.716c1.585-0.251,3.193-0.492,4.729-0.996c1.992-0.653,3.826-1.787,5.506-3.028
							c3-2.205,5.897-4.97,7.496-8.391c1.757-3.766,2.204-8.3,0.417-12.139c-1.548-3.322-4.586-5.721-8.173-6.441
							c-4.159-0.833-9.136,0.493-11.704,4.047c-2.345,3.256-2.221,8.348,1.197,10.801c1.5,1.068,3.5,1.622,5.319,1.265
							c0.822-0.162,1.704-0.534,2.198-1.241c0.255-0.365,0.407-0.792,0.414-1.243c0-0.079-0.135-0.788-0.177-0.519
							c-0.307,2.074-2.606,2.057-4.182,1.467c-1.781-0.668-3.267-2.23-3.367-4.2c-0.238-4.47,4.262-6.751,8.2-6.386
							c3.781,0.354,6.587,3.218,7.09,6.938c0.29,2.234-0.125,4.56-0.971,6.632c-0.803,1.926-2.036,3.564-3.355,5.162
							c-1.317,1.606-2.752,3.123-4.312,4.49c-1.552,1.355-3.325,2.269-5.149,3.173C605.542,239.308,605.146,239.512,604.756,239.716
							z"/>
						<path fill="#FFFFFF" d="M647.532,233.372c7.015-0.593,14.11-2.873,19.09-8.062c-6.417,8.354,3.281,12.208,9.303,16.023
							c-4.99-1.555-17.429-3.65-13.268,5.958c2.069,4.769,13.534,11.185,17.257,5.725c0.984-1.447,0.818-4.448-0.956-5.408
							c-1.885-1.019-4.17,0.958-1.914,2.403c-3.488,0.616-4.188-6.495,1.36-5.042c3.354,0.877,5.319,4.482,4.719,7.895
							c-1.388,7.931-14.294,5.499-23.679-2.104c-8.189-6.627-26.904-15.105-41.54-13.429
							C629.8,232.735,641.675,233.864,647.532,233.372z"/>
						<path fill="#FFFFFF" d="M639.952,261.552c-6.765-4.501-23.167-7.602-26.755-6.775c2.666,1.563,5.04,3.953,6.341,5.557
							c-9-5.924-30.542-5.578-35.532-1.938c-3.219,2.348-4.154,5.448-1.844,8.321c1.759,2.199,5.818,2.57,7.042-0.604
							c-0.671,3.363-3.227,4.612-6.75,4.294c-2.402-0.215-4.023-1.505-5.524-3.28c-1.8-2.127-3.124-3.053-5.657-4.342
							c-5.334-2.712-16.851-5.028-39.791,0.774C556.44,254.534,613.69,239.716,639.952,261.552z"/>
					</g>
				</g>
				<path fill="#FFFFFF" d="M505.356,232.341c-2.246-12.24-12.568-6.324-12.568-6.324s-10.312-5.916-12.575,6.324h-11.281
					c0,0,13.823,23.863,23.856,23.863c-6.417,0-15.264-15.265-15.264-15.265h7.224c1.44-7.833,8.04-4.049,8.04-4.049
					s6.598-3.785,8.046,4.049h7.219c0,0-8.851,15.265-15.266,15.265c10.032,0,23.863-23.863,23.863-23.863H505.356z"/>
			</g>
			<g>
				<g>
					<path fill="#FFFFFF" d="M148.231,396.581c5.599,4.263,12.391,7.325,19.564,6.816c-10.359,1.896-5.744,11.259-3.833,18.123
						c-2.663-4.492-10.485-14.389-13.841-4.472c-1.667,4.924,2.542,17.374,8.958,15.818c1.703-0.416,3.596-2.748,2.924-4.649
						c-0.715-2.026-3.737-2.088-3.037,0.489c-3-1.872,1.251-7.62,4.394-2.82c1.896,2.899,0.939,6.891-1.79,9.025
						c-6.356,4.949-14.298-5.511-16.166-17.446c-1.629-10.403-9.822-29.243-21.807-37.808
						C135.506,384.215,143.558,393.022,148.231,396.581z"/>
					<path fill="#FFFFFF" d="M152.11,389.863c6.489,2.723,12.538,7.067,15.684,13.534c-3.536-9.918,6.876-10.605,13.776-12.381
						c-5.219-0.059-17.707-1.886-10.792-9.75c3.426-3.907,16.313-6.487,18.179-0.148c0.489,1.684-0.584,4.484-2.563,4.855
						c-2.114,0.396-3.678-2.193-1.093-2.874c-3.126-1.661-5.981,4.891-0.251,5.215c3.457,0.195,6.436-2.63,6.917-6.063
						c1.113-7.974-11.917-9.626-23.184-5.28c-9.831,3.796-30.236,6.115-43.651,0.019
						C135.037,385.022,146.696,387.596,152.11,389.863z"/>
				</g>
				<g>
					<g>
						<path fill="#FFFFFF" d="M203.031,433.93c-3.605,6.241-21.673,11.607-31.336,20.174
							c-11.835,10.494-20.683,31.032-42.284,30.872c-14.971-0.11-31.812-4.338-40.396,9.755
							c5.372-21.493,23.874-23.561,26.946-23.836c2.556-0.23,7.896-0.095,8.062-3.102c0.104-1.855-4.038-5.283-10.632-2.988
							c11.237-12.328,31.665-6.371,35.286-7.954c-2.715-0.904-5.966-0.65-7.671-3.485c-1.625-2.687-0.719-6.612,1.459-8.665
							c1.968-1.858,6.187-3.063,7.782-0.145c0.739,1.341,0.655,3.748-0.763,4.698c-1.518,1.016-3.786-0.528-1.989-1.584
							c0.123-0.038,0.123-0.046-0.01-0.018c-0.211,1.693,2.412,0.485,0.847-0.998c-1.222-1.16-3.042,0.676-2.671,2.122
							c1.739,6.828,12.742-0.447,16.267-2.761C175.322,436.786,190.067,441.978,203.031,433.93z"/>
						<path fill="#FFFFFF" d="M207.662,438.329c-6.029,3.482-11.788,7.313-17.271,11.615c-6.977,5.472-13.506,11.493-19.664,17.867
							c-12.751,13.222-24.253,27.9-33.555,43.75c-2.425,4.132-4.683,8.364-6.688,12.719c-1.504,3.266-2.927,6.652-3.864,10.134
							c-2.147,7.901-3.069,16.397-1.902,24.536c0.913,6.412,3.449,13.03,9.02,16.778c2.994,2.01,6.632,3.066,10.218,3.286
							c1.321,0.082,2.646,0.118,3.969,0.041c0.33-0.025,0.656-0.043,0.99-0.063c0.119-0.009,0.697-0.044,0.583-0.033
							c2.292-0.326,4.401-0.927,6.522-1.867c3.792-1.681,7.053-4.982,9.438-8.304c4.658-6.488,7.569-16.529,2.484-23.628
							c-3.718-5.185-11.702-8.125-17.517-4.909c-3.813,2.1-6.448,6.19-7.395,10.377c-0.854,3.757-0.262,8.628,4.02,9.87
							c1.569,0.454,3.204,0.242,4.789-0.001c-1.617,0.371-3.208,0.654-4.861,0.329c-1.95-0.382-3.481-1.625-4.345-3.392
							c-1.772-3.622-0.901-8.23,0.738-11.727c1.866-3.989,5.239-7.426,9.564-8.604c3.275-0.885,6.375-0.199,9.488,0.828
							c3.249,1.433,6.158,3.245,8.211,6.208c2.427,3.497,3.287,7.717,3.035,11.92c-0.536,8.978-5.775,17.757-13.134,22.832
							c-4.008,2.759-8.674,4.157-13.52,4.264c-4.365,0.097-8.707-0.412-12.709-2.256c-4.152-1.914-7.519-5.117-9.833-9.044
							c-4.365-7.414-5.096-16.587-4.421-24.992c0.577-7.207,2.225-14.18,5.024-20.834c3.688-8.753,8.622-16.924,13.94-24.772
							c5.177-7.637,10.907-14.894,16.992-21.827c11.563-13.164,24.709-25.173,39.555-34.536
							C199.46,442.438,203.527,440.336,207.662,438.329z"/>
						<path fill="#FFFFFF" d="M132.557,512.335c-1.017,1.256-2.02,2.527-3.229,3.608c-1.565,1.394-3.459,2.416-5.372,3.25
							c-3.411,1.498-7.262,2.623-11.017,2.296c-4.146-0.364-8.29-2.239-10.724-5.708c-2.1-3-2.661-6.826-1.488-10.3
							c1.36-4.016,4.995-7.667,9.361-8.108c3.983-0.406,8.335,2.25,8.749,6.44c0.184,1.824-0.344,3.844-1.563,5.235
							c-0.551,0.63-1.311,1.208-2.172,1.283c-0.442,0.039-0.89-0.051-1.283-0.266c-0.07-0.041-0.617-0.51-0.364-0.407
							c1.947,0.77,3.087-1.229,3.362-2.888c0.311-1.877-0.297-3.948-1.95-5.02c-3.759-2.436-7.979,0.314-9.635,3.908
							c-1.585,3.451-0.51,7.312,2.467,9.607c1.787,1.373,4.007,2.179,6.226,2.475c2.068,0.28,4.104,0.025,6.146-0.315
							c2.047-0.343,4.079-0.829,6.048-1.496c1.949-0.663,3.619-1.736,5.324-2.867C131.808,512.814,132.18,512.577,132.557,512.335z"
							/>
						<path fill="#FFFFFF" d="M105.667,546.215c-4.02,5.774-9.531,10.779-16.516,12.499c10.44-1.379,8.922,8.944,9.214,16.067
							c1.154-5.097,5.557-16.915,11.797-8.513c3.098,4.178,2.92,17.314-3.67,17.809c-1.753,0.128-4.264-1.509-4.204-3.525
							c0.057-2.147,2.911-3.133,3.037-0.465c2.282-2.708-3.533-6.872-5.042-1.336c-0.925,3.343,1.219,6.85,4.468,8.037
							c7.564,2.762,11.918-9.636,10.028-21.564c-1.645-10.405,0.36-30.846,9.138-42.686
							C113.989,530.537,109.028,541.391,105.667,546.215z"/>
						<path fill="#FFFFFF" d="M133.868,553.742c-0.519-8.11,5.002-23.87,7.509-26.554c0.02,3.086,0.905,6.334,1.639,8.263
							c-0.627-10.751,10.451-29.241,16.097-31.742c3.646-1.61,6.791-0.867,8.126,2.566c1.018,2.622-0.689,6.322-4.042,5.797
							c3.239,1.098,5.604-0.488,7.095-3.696c1.009-2.188,0.708-4.233-0.079-6.426c-0.942-2.628-1.089-4.23-0.942-7.065
							c0.321-5.982,4.08-17.106,20.573-34.076C169.539,477.911,128.086,520.079,133.868,553.742z"/>
					</g>
					<g>
						<path fill="#FFFFFF" d="M211.857,418.647c3.597-6.238-0.782-24.575,1.799-37.224c3.177-15.494,16.529-33.428,5.597-52.063
							c-7.587-12.909-19.665-25.376-11.754-39.855c-15.928,15.395-8.462,32.457-7.168,35.251c1.08,2.328,3.867,6.888,1.347,8.537
							c-1.552,1.016-6.597-0.86-7.902-7.713c-5.062,15.897,10.313,30.606,10.757,34.533c-2.147-1.897-3.544-4.835-6.863-4.899
							c-3.138-0.063-6.082,2.682-6.772,5.592c-0.625,2.633,0.442,6.893,3.77,6.819c1.525-0.038,3.57-1.307,3.683-3.015
							c0.122-1.827-2.349-3.018-2.364-0.925c0.031,0.124,0.026,0.124-0.016-0.003c1.356-1.029,1.62,1.846-0.449,1.23
							c-1.609-0.477-0.931-2.964,0.505-3.372c6.781-1.907,5.986,11.251,5.746,15.466C200.469,393.224,212.34,403.4,211.857,418.647z
							"/>
						<path fill="#FFFFFF" d="M217.982,420.464c-0.006-6.968,0.435-13.873,1.42-20.772c1.25-8.773,3.192-17.442,5.643-25.959
							c5.073-17.653,12.032-34.951,21.105-50.938c2.37-4.164,4.907-8.237,7.674-12.147c2.077-2.938,4.296-5.862,6.844-8.422
							c5.765-5.809,12.671-10.854,20.299-13.912c6.01-2.409,13.013-3.528,19.044-0.576c3.239,1.585,5.968,4.215,7.948,7.202
							c0.733,1.103,1.426,2.234,2.019,3.418c0.147,0.297,0.292,0.592,0.439,0.889c0.055,0.108,0.313,0.627,0.27,0.524
							c0.865,2.148,1.389,4.273,1.639,6.579c0.444,4.125-0.785,8.598-2.472,12.325c-3.29,7.28-10.529,14.821-19.221,13.97
							c-6.345-0.627-12.886-6.074-13.012-12.721c-0.083-4.351,2.136-8.68,5.292-11.595c2.823-2.613,7.344-4.535,10.558-1.442
							c1.184,1.131,1.806,2.649,2.391,4.146c-0.489-1.59-1.03-3.108-2.148-4.38c-1.301-1.496-3.145-2.201-5.109-2.066
							c-4.016,0.279-7.577,3.335-9.787,6.501c-2.522,3.613-3.812,8.25-2.661,12.589c0.869,3.278,3.016,5.618,5.464,7.806
							c2.859,2.093,5.887,3.708,9.469,4.005c4.247,0.349,8.335-1.017,11.846-3.333c7.498-4.956,12.49-13.878,13.202-22.79
							c0.39-4.853-0.738-9.593-3.066-13.847c-2.093-3.82-4.709-7.327-8.313-9.873c-3.731-2.638-8.185-3.956-12.741-3.991
							c-8.607-0.076-16.919,3.881-23.858,8.662c-5.948,4.104-11.165,9.021-15.527,14.774c-5.739,7.567-10.349,15.924-14.486,24.454
							c-4.025,8.306-7.448,16.896-10.405,25.635c-5.622,16.591-9.445,33.984-10.131,51.524
							C217.435,411.304,217.646,415.876,217.982,420.464z"/>
						<path fill="#FFFFFF" d="M244.522,318.412c0.576-1.503,1.17-3.013,1.503-4.596c0.427-2.052,0.364-4.208,0.136-6.284
							c-0.416-3.702-1.365-7.595-3.521-10.683c-2.392-3.408-6.091-6.065-10.309-6.437c-3.646-0.322-7.245,1.105-9.661,3.859
							c-2.803,3.186-4.147,8.164-2.346,12.16c1.645,3.658,6.117,6.093,9.948,4.36c1.678-0.756,3.157-2.219,3.763-3.972
							c0.26-0.788,0.385-1.74,0.02-2.52c-0.188-0.406-0.489-0.748-0.876-0.981c-0.06-0.039-0.745-0.281-0.532-0.108
							c1.636,1.3,0.481,3.287-0.822,4.353c-1.463,1.21-3.563,1.721-5.317,0.825c-3.997-2.036-3.72-7.074-1.433-10.298
							c2.198-3.1,6.079-4.097,9.553-2.671c2.084,0.863,3.885,2.383,5.256,4.156c1.275,1.651,2.073,3.538,2.797,5.485
							c0.728,1.943,1.323,3.942,1.728,5.981c0.401,2.014,0.308,4.01,0.178,6.04C244.56,317.523,244.536,317.97,244.522,318.412z"/>
						<path fill="#FFFFFF" d="M260.418,278.193c2.995-6.372,4.568-13.655,2.556-20.563c4.034,9.731,12.221,3.26,18.53-0.047
							c-3.84,3.539-11.874,13.269-1.476,14.47c5.166,0.594,16.459-6.13,13.588-12.081c-0.766-1.583-3.441-2.938-5.16-1.88
							c-1.826,1.123-1.251,4.089,1.119,2.863c-1.204,3.329-7.715,0.377-3.684-3.705c2.439-2.466,6.543-2.364,9.198-0.143
							c6.177,5.175-2.384,15.137-13.661,19.466c-9.835,3.773-26.528,15.736-32.393,29.254
							C250.996,293.228,257.922,283.507,260.418,278.193z"/>
						<path fill="#FFFFFF" d="M281.029,298.845c-7.284,3.607-18.169,16.266-19.241,19.783c2.687-1.531,5.934-2.386,7.979-2.711
							c-9.626,4.831-20.101,23.665-19.446,29.803c0.423,3.964,2.643,6.319,6.29,5.759c2.779-0.431,5.129-3.752,2.999-6.396
							c2.568,2.258,2.374,5.096,0.343,7.986c-1.386,1.972-3.313,2.728-5.606,3.145c-2.743,0.502-4.207,1.177-6.581,2.721
							c-5.024,3.271-12.786,12.082-19.232,34.856C233.196,367.656,248.989,310.672,281.029,298.845z"/>
					</g>
				</g>
				<path fill="#FFFFFF" d="M188.437,400.8c-11.729-4.167-11.762,7.729-11.762,7.729s-10.28,5.975-0.813,14.048l-5.641,9.773
					c0,0,27.58-0.044,32.592-8.732c-3.209,5.559-20.846,5.588-20.846,5.588l3.606-6.251c-6.059-5.167,0.519-8.991,0.519-8.991
					s0.021-7.61,7.527-4.944l3.61-6.251c0,0,8.792,15.292,5.583,20.849c5.021-8.685-8.73-32.59-8.73-32.59L188.437,400.8z"/>
			</g>
			<g>
				<g>
					<path fill="#FFFFFF" d="M152.11,792.201c6.489-2.721,12.538-7.063,15.684-13.53c-3.536,9.918,6.876,10.605,13.776,12.381
						c-5.219,0.059-17.707,1.889-10.792,9.753c3.426,3.903,16.313,6.482,18.179,0.143c0.489-1.682-0.584-4.484-2.563-4.85
						c-2.114-0.392-3.678,2.191-1.093,2.867c-3.126,1.663-5.981-4.89-0.251-5.213c3.457-0.191,6.436,2.63,6.917,6.062
						c1.113,7.977-11.917,9.628-23.184,5.28c-9.831-3.792-30.236-6.114-43.651-0.018
						C135.037,797.044,146.696,794.472,152.11,792.201z"/>
					<path fill="#FFFFFF" d="M148.231,785.488c5.599-4.267,12.391-7.329,19.564-6.817c-10.359-1.898-5.744-11.259-3.833-18.121
						c-2.663,4.49-10.485,14.386-13.841,4.473c-1.667-4.927,2.542-17.375,8.958-15.821c1.703,0.417,3.596,2.749,2.924,4.649
						c-0.715,2.026-3.737,2.087-3.037-0.487c-3,1.873,1.251,7.618,4.394,2.818c1.896-2.898,0.939-6.893-1.79-9.024
						c-6.356-4.949-14.298,5.51-16.166,17.444c-1.629,10.402-9.822,29.243-21.807,37.81
						C135.506,797.854,143.558,789.044,148.231,785.488z"/>
				</g>
				<g>
					<g>
						<path fill="#FFFFFF" d="M211.857,763.421c3.597,6.239-0.782,24.575,1.799,37.223c3.177,15.496,16.529,33.43,5.597,52.062
							c-7.587,12.911-19.665,25.378-11.754,39.855c-15.928-15.396-8.462-32.455-7.168-35.252c1.08-2.332,3.867-6.887,1.347-8.537
							c-1.552-1.018-6.597,0.858-7.902,7.712c-5.062-15.895,10.313-30.606,10.757-34.531c-2.147,1.896-3.544,4.839-6.863,4.902
							c-3.138,0.064-6.082-2.682-6.772-5.595c-0.625-2.633,0.442-6.891,3.77-6.818c1.525,0.037,3.57,1.306,3.683,3.016
							c0.122,1.824-2.349,3.013-2.364,0.922c0.031-0.124,0.026-0.124-0.016,0.006c1.356,1.028,1.62-1.848-0.449-1.233
							c-1.609,0.478-0.931,2.973,0.505,3.373c6.781,1.908,5.986-11.251,5.746-15.466
							C200.469,788.842,212.34,778.664,211.857,763.421z"/>
						<path fill="#FFFFFF" d="M217.982,761.604c-0.006,6.966,0.435,13.873,1.42,20.772c1.25,8.771,3.192,17.442,5.643,25.959
							c5.073,17.65,12.032,34.952,21.105,50.938c2.37,4.161,4.907,8.236,7.674,12.15c2.077,2.933,4.296,5.858,6.844,8.422
							c5.765,5.805,12.671,10.85,20.299,13.906c6.01,2.407,13.013,3.532,19.044,0.575c3.239-1.584,5.968-4.21,7.948-7.202
							c0.733-1.104,1.426-2.232,2.019-3.42c0.147-0.294,0.292-0.586,0.439-0.885c0.055-0.108,0.313-0.624,0.27-0.523
							c0.865-2.147,1.389-4.276,1.639-6.581c0.444-4.124-0.785-8.596-2.472-12.324c-3.29-7.28-10.529-14.821-19.221-13.966
							c-6.345,0.625-12.886,6.072-13.012,12.717c-0.083,4.352,2.136,8.681,5.292,11.594c2.823,2.614,7.344,4.535,10.558,1.444
							c1.184-1.13,1.806-2.647,2.391-4.141c-0.489,1.583-1.03,3.101-2.148,4.375c-1.301,1.497-3.145,2.2-5.109,2.066
							c-4.016-0.276-7.577-3.334-9.787-6.502c-2.522-3.611-3.812-8.251-2.661-12.588c0.869-3.28,3.016-5.62,5.464-7.808
							c2.859-2.093,5.887-3.711,9.469-4.005c4.247-0.347,8.335,1.012,11.846,3.329c7.498,4.955,12.49,13.882,13.202,22.795
							c0.39,4.852-0.738,9.592-3.066,13.846c-2.093,3.818-4.709,7.328-8.313,9.871c-3.731,2.64-8.185,3.959-12.741,3.995
							c-8.607,0.07-16.919-3.884-23.858-8.664c-5.948-4.104-11.165-9.017-15.527-14.772c-5.739-7.569-10.349-15.924-14.486-24.457
							c-4.025-8.299-7.448-16.896-10.405-25.632c-5.622-16.595-9.445-33.987-10.131-51.526
							C217.435,770.762,217.646,766.191,217.982,761.604z"/>
						<path fill="#FFFFFF" d="M244.522,863.656c0.576,1.503,1.17,3.012,1.503,4.594c0.427,2.058,0.364,4.208,0.136,6.281
							c-0.416,3.705-1.365,7.602-3.521,10.689c-2.392,3.408-6.091,6.06-10.309,6.433c-3.646,0.319-7.245-1.105-9.661-3.861
							c-2.803-3.182-4.147-8.159-2.346-12.153c1.645-3.655,6.117-6.098,9.948-4.362c1.678,0.757,3.157,2.22,3.763,3.973
							c0.26,0.789,0.385,1.737,0.02,2.521c-0.188,0.408-0.489,0.747-0.876,0.977c-0.06,0.043-0.745,0.282-0.532,0.108
							c1.636-1.297,0.481-3.283-0.822-4.352c-1.463-1.206-3.563-1.721-5.317-0.826c-3.997,2.034-3.72,7.075-1.433,10.301
							c2.198,3.098,6.079,4.096,9.553,2.669c2.084-0.863,3.885-2.379,5.256-4.156c1.275-1.651,2.073-3.54,2.797-5.485
							c0.728-1.943,1.323-3.938,1.728-5.98c0.401-2.015,0.308-4.005,0.178-6.039C244.56,864.542,244.536,864.104,244.522,863.656z"
							/>
						<path fill="#FFFFFF" d="M260.418,903.881c2.995,6.373,4.568,13.648,2.556,20.556c4.034-9.733,12.221-3.26,18.53,0.053
							c-3.84-3.546-11.874-13.275-1.476-14.474c5.166-0.593,16.459,6.13,13.588,12.083c-0.766,1.578-3.441,2.936-5.16,1.877
							c-1.826-1.12-1.251-4.089,1.119-2.86c-1.204-3.329-7.715-0.376-3.684,3.7c2.439,2.468,6.543,2.367,9.198,0.146
							c6.177-5.174-2.384-15.136-13.661-19.465c-9.835-3.774-26.528-15.74-32.393-29.253
							C250.996,888.839,257.922,898.56,260.418,903.881z"/>
						<path fill="#FFFFFF" d="M281.029,883.222c-7.284-3.603-18.169-16.262-19.241-19.782c2.687,1.533,5.934,2.387,7.979,2.71
							c-9.626-4.83-20.101-23.663-19.446-29.799c0.423-3.965,2.643-6.32,6.29-5.76c2.779,0.43,5.129,3.749,2.999,6.396
							c2.568-2.257,2.374-5.096,0.343-7.989c-1.386-1.968-3.313-2.727-5.606-3.142c-2.743-0.503-4.207-1.175-6.581-2.723
							c-5.024-3.264-12.786-12.079-19.232-34.852C233.196,814.411,248.989,871.393,281.029,883.222z"/>
					</g>
					<g>
						<path fill="#FFFFFF" d="M203.031,748.137c-3.605-6.24-21.673-11.606-31.336-20.17c-11.835-10.497-20.683-31.036-42.284-30.877
							c-14.971,0.112-31.812,4.341-40.396-9.756c5.372,21.497,23.874,23.563,26.946,23.838c2.556,0.23,7.896,0.096,8.062,3.103
							c0.104,1.855-4.038,5.283-10.632,2.988c11.237,12.328,31.665,6.369,35.286,7.954c-2.715,0.904-5.966,0.65-7.671,3.484
							c-1.625,2.687-0.719,6.611,1.459,8.663c1.968,1.859,6.187,3.065,7.782,0.152c0.739-1.348,0.655-3.753-0.763-4.707
							c-1.518-1.013-3.786,0.532-1.989,1.586c0.123,0.042,0.123,0.047-0.01,0.019c-0.211-1.69,2.412-0.485,0.847,0.997
							c-1.222,1.162-3.042-0.673-2.671-2.12c1.739-6.826,12.742,0.443,16.267,2.76C175.322,745.282,190.067,740.095,203.031,748.137
							z"/>
						<path fill="#FFFFFF" d="M207.662,743.738c-6.029-3.484-11.788-7.315-17.271-11.616c-6.977-5.468-13.506-11.491-19.664-17.865
							c-12.751-13.223-24.253-27.897-33.555-43.751c-2.425-4.132-4.683-8.362-6.688-12.719c-1.504-3.268-2.927-6.651-3.864-10.133
							c-2.147-7.901-3.069-16.398-1.902-24.536c0.913-6.409,3.449-13.03,9.02-16.776c2.994-2.014,6.632-3.067,10.218-3.29
							c1.321-0.082,2.646-0.116,3.969-0.039c0.33,0.025,0.656,0.042,0.99,0.063c0.119,0.008,0.697,0.043,0.583,0.03
							c2.292,0.328,4.401,0.931,6.522,1.868c3.792,1.681,7.053,4.982,9.438,8.304c4.658,6.487,7.569,16.53,2.484,23.63
							c-3.718,5.186-11.702,8.122-17.517,4.906c-3.813-2.102-6.448-6.189-7.395-10.376c-0.854-3.757-0.262-8.627,4.02-9.87
							c1.569-0.457,3.204-0.242,4.789,0.001c-1.617-0.37-3.208-0.656-4.861-0.326c-1.95,0.38-3.481,1.622-4.345,3.394
							c-1.772,3.617-0.901,8.223,0.738,11.72c1.866,3.995,5.239,7.433,9.564,8.607c3.275,0.888,6.375,0.199,9.488-0.825
							c3.249-1.435,6.158-3.248,8.211-6.21c2.427-3.496,3.287-7.719,3.035-11.92c-0.536-8.975-5.775-17.756-13.134-22.832
							c-4.008-2.759-8.674-4.153-13.52-4.259c-4.365-0.099-8.707,0.409-12.709,2.252c-4.152,1.914-7.519,5.115-9.833,9.043
							c-4.365,7.416-5.096,16.588-4.421,24.995c0.577,7.205,2.225,14.178,5.024,20.832c3.688,8.755,8.622,16.926,13.94,24.773
							c5.177,7.642,10.907,14.895,16.992,21.829c11.563,13.162,24.709,25.169,39.555,34.532
							C199.46,739.631,203.527,741.731,207.662,743.738z"/>
						<path fill="#FFFFFF" d="M132.557,669.731c-1.017-1.253-2.02-2.527-3.229-3.602c-1.565-1.401-3.459-2.418-5.372-3.255
							c-3.411-1.496-7.262-2.622-11.017-2.296c-4.146,0.361-8.29,2.236-10.724,5.706c-2.1,2.998-2.661,6.827-1.488,10.302
							c1.36,4.017,4.995,7.666,9.361,8.106c3.983,0.408,8.335-2.248,8.749-6.438c0.184-1.825-0.344-3.842-1.563-5.239
							c-0.551-0.628-1.311-1.203-2.172-1.278c-0.442-0.039-0.89,0.048-1.283,0.262c-0.07,0.041-0.617,0.51-0.364,0.408
							c1.947-0.769,3.087,1.23,3.362,2.887c0.311,1.877-0.297,3.949-1.95,5.022c-3.759,2.438-7.979-0.314-9.635-3.91
							c-1.585-3.451-0.51-7.311,2.467-9.605c1.787-1.373,4.007-2.179,6.226-2.474c2.068-0.281,4.104-0.025,6.146,0.316
							c2.047,0.344,4.079,0.826,6.048,1.495c1.949,0.662,3.619,1.737,5.324,2.867C131.808,669.252,132.18,669.491,132.557,669.731z"
							/>
						<path fill="#FFFFFF" d="M105.667,635.853c-4.02-5.777-9.531-10.778-16.516-12.501c10.44,1.378,8.922-8.942,9.214-16.065
							c1.154,5.096,5.557,16.918,11.797,8.508c3.098-4.177,2.92-17.313-3.67-17.804c-1.753-0.129-4.264,1.511-4.204,3.521
							c0.057,2.151,2.911,3.137,3.037,0.467c2.282,2.712-3.533,6.871-5.042,1.341c-0.925-3.347,1.219-6.854,4.468-8.04
							c7.564-2.762,11.918,9.638,10.028,21.565c-1.645,10.404,0.36,30.847,9.138,42.687
							C113.989,651.528,109.028,640.677,105.667,635.853z"/>
						<path fill="#FFFFFF" d="M133.868,628.324c-0.519,8.111,5.002,23.871,7.509,26.557c0.02-3.085,0.905-6.333,1.639-8.262
							c-0.627,10.753,10.451,29.234,16.097,31.74c3.646,1.612,6.791,0.867,8.126-2.566c1.018-2.621-0.689-6.324-4.042-5.795
							c3.239-1.098,5.604,0.483,7.095,3.69c1.009,2.189,0.708,4.236-0.079,6.428c-0.942,2.63-1.089,4.234-0.942,7.071
							c0.321,5.979,4.08,17.104,20.573,34.071C169.539,704.156,128.086,661.989,133.868,628.324z"/>
					</g>
				</g>
				<path fill="#FFFFFF" d="M175.862,759.493c-9.467,8.072,0.813,14.056,0.813,14.056s0.031,11.884,11.762,7.722l5.646,9.771
					c0,0,13.751-23.904,8.73-32.591c3.208,5.556-5.583,20.852-5.583,20.852l-3.61-6.256c-7.505,2.668-7.527-4.941-7.527-4.941
					s-6.577-3.821-0.519-8.991l-3.606-6.255c0,0,17.638,0.034,20.846,5.592c-5.012-8.691-32.592-8.733-32.592-8.733L175.862,759.493
					z"/>
			</g>
			<g>
				<g>
					<path fill="#FFFFFF" d="M496.662,986.656c0.898-6.979,0.16-14.396-3.874-20.351c6.823,8.021,12.62-0.65,17.616-5.739
						c-2.567,4.547-7.224,16.275,3.046,14.223c5.094-1.018,13.772-10.89,9.208-15.669c-1.207-1.271-4.169-1.741-5.485-0.21
						c-1.395,1.637,0.064,4.279,1.946,2.384c-0.121,3.538-7.226,2.733-4.637-2.392c1.558-3.096,5.497-4.262,8.709-2.962
						c7.465,3.027,2.377,15.133-7.025,22.722c-8.193,6.61-20.414,23.129-21.84,37.793
						C492.32,1003.863,495.924,992.482,496.662,986.656z"/>
					<path fill="#FFFFFF" d="M488.91,986.656c-0.892-6.979-0.154-14.396,3.878-20.351c-6.825,8.021-12.627-0.65-17.612-5.739
						c2.563,4.547,7.221,16.275-3.045,14.223c-5.096-1.018-13.772-10.89-9.216-15.669c1.208-1.271,4.173-1.741,5.486-0.21
						c1.396,1.637-0.062,4.279-1.944,2.384c0.117,3.538,7.226,2.733,4.64-2.392c-1.561-3.096-5.498-4.262-8.708-2.962
						c-7.47,3.027-2.381,15.133,7.021,22.722c8.198,6.61,20.408,23.129,21.834,37.793
						C493.258,1003.863,489.653,992.482,488.91,986.656z"/>
				</g>
				<g>
					<g>
						<path fill="#FFFFFF" d="M501.612,920.523c7.202,0,20.892,12.966,33.136,17.049c15.009,5.003,37.22,2.4,47.881,21.186
							c7.393,13.02,12.146,29.719,28.647,30.102c-21.302,6.1-32.346-8.891-34.117-11.414c-1.48-2.1-4.034-6.79-6.72-5.433
							c-1.653,0.841-2.551,6.14,2.726,10.7c-16.29-3.565-21.341-24.236-24.522-26.58c0.567,2.805,2.416,5.485,0.816,8.393
							c-1.52,2.748-5.376,3.922-8.234,3.072c-2.597-0.774-5.75-3.833-4.022-6.674c0.796-1.312,2.919-2.448,4.461-1.689
							c1.634,0.811,1.431,3.543-0.393,2.51c-0.094-0.085-0.094-0.083-0.004,0.021c1.572-0.663-0.789-2.327-1.288-0.231
							c-0.395,1.633,2.106,2.292,3.18,1.251c5.034-4.926-6.76-10.813-10.529-12.71C517.94,943.098,515.062,927.727,501.612,920.523z
							"/>
						<path fill="#FFFFFF" d="M503.11,914.309c6.022,3.486,12.221,6.556,18.693,9.154c8.228,3.302,16.705,5.955,25.305,8.097
							c17.82,4.433,36.28,7.054,54.665,7.187c4.789,0.036,9.589-0.132,14.355-0.568c3.589-0.336,7.223-0.79,10.712-1.72
							c7.913-2.093,15.74-5.542,22.203-10.62c5.089-4.002,9.556-9.505,10.015-16.203c0.246-3.596-0.659-7.276-2.26-10.489
							c-0.592-1.184-1.224-2.347-1.949-3.458c-0.186-0.272-0.37-0.548-0.545-0.824c-0.073-0.101-0.388-0.581-0.323-0.495
							c-1.434-1.815-3.006-3.34-4.883-4.704c-3.348-2.456-7.838-3.62-11.906-4.029c-7.948-0.786-18.099,1.713-21.705,9.665
							c-2.634,5.812-1.188,14.196,4.512,17.629c3.719,2.248,8.582,2.486,12.677,1.211c3.679-1.135,7.599-4.085,6.532-8.418
							c-0.388-1.593-1.386-2.891-2.387-4.145c1.127,1.217,2.165,2.452,2.715,4.046c0.642,1.88,0.328,3.829-0.77,5.462
							c-2.244,3.335-6.672,4.895-10.521,5.223c-4.392,0.374-9.055-0.825-12.236-3.987c-2.408-2.39-3.366-5.425-4.028-8.632
							c-0.38-3.529-0.269-6.954,1.271-10.208c1.818-3.852,5.041-6.712,8.802-8.595c8.04-4.018,18.268-3.875,26.343-0.038
							c4.391,2.085,7.937,5.436,10.454,9.582c2.261,3.725,3.994,7.743,4.401,12.127c0.412,4.555-0.673,9.072-2.915,13.04
							c-4.242,7.483-11.827,12.7-19.442,16.325c-6.525,3.101-13.386,5.158-20.547,6.058c-9.426,1.188-18.978,1.005-28.432,0.318
							c-9.197-0.663-18.35-1.999-27.396-3.806c-17.18-3.425-34.151-8.81-49.682-16.987
							C510.759,919.367,506.908,916.891,503.11,914.309z"/>
						<path fill="#FFFFFF" d="M604.756,942.356c1.585,0.249,3.193,0.488,4.729,0.992c1.992,0.653,3.826,1.786,5.506,3.024
							c3,2.207,5.897,4.974,7.496,8.393c1.757,3.771,2.204,8.301,0.417,12.139c-1.548,3.32-4.586,5.722-8.173,6.44
							c-4.159,0.834-9.136-0.494-11.704-4.05c-2.345-3.25-2.221-8.344,1.197-10.795c1.5-1.072,3.5-1.623,5.319-1.269
							c0.822,0.16,1.704,0.532,2.198,1.241c0.255,0.363,0.407,0.796,0.414,1.244c0,0.076-0.135,0.788-0.177,0.519
							c-0.307-2.071-2.606-2.061-4.182-1.471c-1.781,0.67-3.267,2.231-3.367,4.197c-0.238,4.473,4.262,6.752,8.2,6.391
							c3.781-0.357,6.587-3.22,7.09-6.939c0.29-2.234-0.125-4.555-0.971-6.631c-0.803-1.928-2.036-3.565-3.355-5.16
							c-1.317-1.605-2.752-3.12-4.312-4.493c-1.552-1.354-3.325-2.263-5.149-3.173C605.542,942.759,605.146,942.559,604.756,942.356
							z"/>
						<path fill="#FFFFFF" d="M647.532,948.694c7.015,0.596,14.11,2.871,19.09,8.063c-6.417-8.356,3.281-12.206,9.303-16.018
							c-4.99,1.553-17.429,3.647-13.268-5.964c2.069-4.769,13.534-11.184,17.257-5.726c0.984,1.45,0.818,4.451-0.956,5.413
							c-1.885,1.019-4.17-0.961-1.914-2.403c-3.488-0.619-4.188,6.495,1.36,5.038c3.354-0.876,5.319-4.481,4.719-7.893
							c-1.388-7.936-14.294-5.501-23.679,2.103c-8.189,6.627-26.904,15.105-41.54,13.426
							C629.8,949.335,641.675,948.201,647.532,948.694z"/>
						<path fill="#FFFFFF" d="M639.952,920.516c-6.765,4.502-23.167,7.604-26.755,6.776c2.666-1.561,5.04-3.952,6.341-5.559
							c-9,5.925-30.542,5.577-35.532,1.938c-3.219-2.346-4.154-5.448-1.844-8.32c1.759-2.196,5.818-2.571,7.042,0.606
							c-0.671-3.36-3.227-4.614-6.75-4.301c-2.402,0.217-4.023,1.511-5.524,3.283c-1.8,2.127-3.124,3.054-5.657,4.343
							c-5.334,2.717-16.851,5.028-39.791-0.772C556.44,927.536,613.69,942.356,639.952,920.516z"/>
					</g>
					<g>
						<path fill="#FFFFFF" d="M483.966,920.523c-7.212,0-20.894,12.966-33.14,17.049c-15.001,5.003-37.217,2.4-47.878,21.186
							c-7.393,13.02-12.149,29.719-28.647,30.102c21.302,6.1,32.344-8.891,34.114-11.414c1.482-2.1,4.033-6.79,6.72-5.433
							c1.658,0.841,2.559,6.14-2.727,10.7c16.296-3.565,21.35-24.236,24.533-26.58c-0.575,2.805-2.418,5.485-0.819,8.393
							c1.517,2.748,5.367,3.922,8.23,3.072c2.596-0.774,5.751-3.833,4.025-6.674c-0.802-1.312-2.924-2.448-4.456-1.689
							c-1.648,0.811-1.439,3.543,0.378,2.51c0.099-0.085,0.099-0.083,0.009,0.021c-1.57-0.663,0.788-2.327,1.289-0.231
							c0.396,1.633-2.106,2.292-3.167,1.251c-5.053-4.926,6.75-10.813,10.521-12.71
							C467.638,943.098,470.515,927.727,483.966,920.523z"/>
						<path fill="#FFFFFF" d="M482.476,914.309c-6.032,3.486-12.233,6.556-18.702,9.154c-8.218,3.302-16.705,5.955-25.299,8.097
							c-17.831,4.433-36.289,7.054-54.667,7.187c-4.797,0.036-9.587-0.132-14.359-0.568c-3.584-0.336-7.228-0.79-10.715-1.72
							c-7.912-2.093-15.729-5.542-22.201-10.62c-5.09-4.002-9.558-9.505-10.011-16.203c-0.253-3.596,0.656-7.276,2.262-10.489
							c0.583-1.184,1.218-2.347,1.948-3.458c0.183-0.272,0.367-0.548,0.546-0.824c0.067-0.101,0.391-0.581,0.319-0.495
							c1.426-1.815,3.005-3.34,4.873-4.704c3.357-2.456,7.846-3.62,11.914-4.029c7.955-0.786,18.102,1.713,21.705,9.665
							c2.637,5.812,1.187,14.196-4.5,17.629c-3.729,2.248-8.584,2.486-12.691,1.211c-3.674-1.135-7.594-4.085-6.529-8.418
							c0.392-1.593,1.386-2.891,2.396-4.145c-1.134,1.217-2.172,2.452-2.718,4.046c-0.646,1.88-0.334,3.829,0.763,5.462
							c2.252,3.335,6.673,4.895,10.522,5.223c4.392,0.374,9.05-0.825,12.237-3.987c2.407-2.39,3.364-5.425,4.031-8.632
							c0.376-3.529,0.268-6.954-1.27-10.208c-1.823-3.852-5.043-6.712-8.809-8.595c-8.037-4.018-18.265-3.875-26.34-0.038
							c-4.396,2.085-7.938,5.436-10.452,9.582c-2.263,3.725-3.997,7.743-4.395,12.127c-0.42,4.555,0.661,9.072,2.905,13.04
							c4.241,7.483,11.824,12.7,19.442,16.325c6.525,3.101,13.385,5.158,20.553,6.058c9.423,1.188,18.967,1.005,28.418,0.318
							c9.198-0.663,18.357-1.999,27.405-3.806c17.18-3.425,34.155-8.81,49.688-16.987
							C474.813,919.367,478.665,916.891,482.476,914.309z"/>
						<path fill="#FFFFFF" d="M380.823,942.356c-1.589,0.249-3.196,0.488-4.734,0.992c-1.989,0.653-3.822,1.786-5.504,3.024
							c-3.002,2.207-5.896,4.974-7.492,8.393c-1.758,3.771-2.208,8.301-0.421,12.139c1.542,3.32,4.584,5.722,8.178,6.44
							c4.157,0.834,9.135-0.494,11.702-4.05c2.344-3.25,2.218-8.344-1.199-10.795c-1.49-1.072-3.5-1.623-5.326-1.269
							c-0.811,0.16-1.696,0.532-2.194,1.241c-0.254,0.363-0.399,0.796-0.408,1.244c0,0.076,0.128,0.788,0.17,0.519
							c0.307-2.071,2.61-2.061,4.181-1.471c1.783,0.67,3.273,2.231,3.377,4.197c0.228,4.473-4.266,6.752-8.21,6.391
							c-3.773-0.357-6.585-3.22-7.082-6.939c-0.294-2.234,0.118-4.555,0.968-6.631c0.791-1.928,2.031-3.565,3.354-5.16
							c1.313-1.605,2.75-3.12,4.314-4.493c1.547-1.354,3.316-2.263,5.142-3.173C380.038,942.759,380.433,942.559,380.823,942.356z"
							/>
						<path fill="#FFFFFF" d="M338.044,948.694c-7.015,0.596-14.105,2.871-19.086,8.063c6.414-8.356-3.282-12.206-9.306-16.018
							c4.984,1.553,17.427,3.647,13.267-5.964c-2.065-4.769-13.533-11.184-17.252-5.726c-0.988,1.45-0.822,4.451,0.948,5.413
							c1.887,1.019,4.171-0.961,1.927-2.403c3.482-0.619,4.178,6.495-1.369,5.038c-3.355-0.876-5.318-4.481-4.725-7.893
							c1.395-7.936,14.305-5.501,23.689,2.103c8.184,6.627,26.893,15.105,41.53,13.426
							C355.78,949.335,343.898,948.201,338.044,948.694z"/>
						<path fill="#FFFFFF" d="M345.627,920.516c6.763,4.502,23.169,7.604,26.749,6.776c-2.662-1.561-5.032-3.952-6.341-5.559
							c9.002,5.925,30.554,5.577,35.537,1.938c3.219-2.346,4.151-5.448,1.843-8.32c-1.759-2.196-5.813-2.571-7.041,0.606
							c0.679-3.36,3.23-4.614,6.751-4.301c2.401,0.217,4.015,1.511,5.521,3.283c1.813,2.127,3.123,3.054,5.656,4.343
							c5.34,2.717,16.845,5.028,39.793-0.772C429.136,927.536,371.892,942.356,345.627,920.516z"/>
					</g>
				</g>
				<path fill="#FFFFFF" d="M480.213,949.729c2.263,12.238,12.575,6.324,12.575,6.324s10.322,5.915,12.568-6.324h11.292
					c0,0-13.829-23.87-23.861-23.87c6.416,0,15.265,15.27,15.265,15.27h-7.217c-1.449,7.835-8.046,4.05-8.046,4.05
					s-6.6,3.785-8.04-4.05h-7.221c0,0,8.844-15.27,15.261-15.27c-10.033,0-23.856,23.87-23.856,23.87H480.213z"/>
			</g>
			<g>
				<g>
					<path fill="#FFFFFF" d="M837.346,785.488c-5.598-4.267-12.386-7.329-19.564-6.817c10.359-1.898,5.75-11.259,3.838-18.121
						c2.655,4.49,10.486,14.386,13.833,4.473c1.669-4.927-2.539-17.375-8.958-15.821c-1.704,0.417-3.592,2.749-2.919,4.649
						c0.723,2.026,3.738,2.087,3.034-0.487c3,1.873-1.244,7.618-4.398,2.818c-1.894-2.898-0.937-6.893,1.796-9.024
						c6.354-4.949,14.295,5.51,16.16,17.444c1.63,10.402,9.824,29.243,21.815,37.81
						C850.077,797.854,842.019,789.044,837.346,785.488z"/>
					<path fill="#FFFFFF" d="M833.471,792.201c-6.491-2.721-12.547-7.063-15.689-13.53c3.535,9.918-6.872,10.605-13.772,12.381
						c5.221,0.059,17.704,1.889,10.79,9.753c-3.437,3.903-16.317,6.482-18.176,0.143c-0.501-1.682,0.583-4.484,2.556-4.85
						c2.115-0.392,3.684,2.191,1.099,2.867c3.127,1.663,5.974-4.89,0.251-5.213c-3.458-0.191-6.444,2.63-6.923,6.062
						c-1.112,7.977,11.917,9.628,23.192,5.28c9.822-3.792,30.235-6.114,43.649-0.018
						C850.541,797.044,838.895,794.472,833.471,792.201z"/>
				</g>
				<g>
					<g>
						<path fill="#FFFFFF" d="M782.544,748.137c3.604-6.24,21.681-11.606,31.336-20.17c11.834-10.497,20.688-31.036,42.287-30.877
							c14.966,0.112,31.804,4.341,40.396-9.756c-5.372,21.497-23.876,23.563-26.948,23.838c-2.554,0.23-7.897,0.096-8.059,3.103
							c-0.11,1.855,4.031,5.283,10.624,2.988c-11.239,12.328-31.657,6.369-35.289,7.954c2.717,0.904,5.968,0.65,7.681,3.484
							c1.623,2.687,0.717,6.611-1.458,8.663c-1.962,1.859-6.193,3.065-7.784,0.152c-0.732-1.348-0.663-3.753,0.765-4.707
							c1.52-1.013,3.782,0.532,1.983,1.586c-0.123,0.042-0.123,0.047,0.008,0.019c0.213-1.69-2.407-0.485-0.84,0.997
							c1.22,1.162,3.036-0.673,2.667-2.12c-1.742-6.826-12.737,0.443-16.263,2.76C810.256,745.282,795.507,740.095,782.544,748.137z
							"/>
						<path fill="#FFFFFF" d="M777.913,743.738c6.032-3.484,11.788-7.315,17.274-11.616c6.973-5.468,13.512-11.491,19.664-17.865
							c12.751-13.223,24.251-27.897,33.561-43.751c2.422-4.132,4.677-8.362,6.683-12.719c1.506-3.268,2.929-6.651,3.876-10.133
							c2.14-7.901,3.06-16.398,1.896-24.536c-0.924-6.409-3.454-13.03-9.027-16.776c-2.99-2.014-6.637-3.067-10.214-3.29
							c-1.319-0.082-2.642-0.116-3.969-0.039c-0.324,0.025-0.656,0.042-0.991,0.063c-0.12,0.008-0.699,0.043-0.584,0.03
							c-2.293,0.328-4.395,0.931-6.511,1.868c-3.806,1.681-7.058,4.982-9.448,8.304c-4.656,6.487-7.568,16.53-2.483,23.63
							c3.719,5.186,11.705,8.122,17.521,4.906c3.811-2.102,6.446-6.189,7.399-10.376c0.846-3.757,0.259-8.627-4.033-9.87
							c-1.567-0.457-3.191-0.242-4.782,0.001c1.614-0.37,3.209-0.656,4.861-0.326c1.951,0.38,3.483,1.622,4.35,3.394
							c1.765,3.617,0.896,8.223-0.734,11.72c-1.875,3.995-5.247,7.433-9.578,8.607c-3.277,0.888-6.372,0.199-9.486-0.825
							c-3.24-1.435-6.162-3.248-8.208-6.21c-2.425-3.496-3.287-7.719-3.036-11.92c0.537-8.975,5.773-17.756,13.134-22.832
							c4.004-2.759,8.679-4.153,13.528-4.259c4.354-0.099,8.698,0.409,12.7,2.252c4.156,1.914,7.527,5.115,9.834,9.043
							c4.364,7.416,5.094,16.588,4.421,24.995c-0.576,7.205-2.229,14.178-5.025,20.832c-3.686,8.755-8.622,16.926-13.94,24.773
							c-5.176,7.642-10.906,14.895-16.991,21.829c-11.562,13.162-24.71,25.169-39.56,34.532
							C786.118,739.631,782.044,741.731,777.913,743.738z"/>
						<path fill="#FFFFFF" d="M853.02,669.731c1.015-1.253,2.025-2.527,3.228-3.602c1.567-1.401,3.467-2.418,5.372-3.255
							c3.414-1.496,7.261-2.622,11.021-2.296c4.135,0.361,8.287,2.236,10.72,5.706c2.11,2.998,2.661,6.827,1.484,10.302
							c-1.356,4.017-4.991,7.666-9.351,8.106c-3.99,0.408-8.338-2.248-8.752-6.438c-0.186-1.825,0.34-3.842,1.566-5.239
							c0.543-0.628,1.306-1.203,2.165-1.278c0.444-0.039,0.895,0.048,1.284,0.262c0.07,0.041,0.617,0.51,0.366,0.408
							c-1.947-0.769-3.089,1.23-3.364,2.887c-0.307,1.877,0.297,3.949,1.949,5.022c3.756,2.438,7.98-0.314,9.635-3.91
							c1.583-3.451,0.506-7.311-2.47-9.605c-1.79-1.373-3.999-2.179-6.223-2.474c-2.063-0.281-4.1-0.025-6.144,0.316
							c-2.046,0.344-4.081,0.826-6.05,1.495c-1.944,0.662-3.619,1.737-5.318,2.867C853.769,669.252,853.393,669.491,853.02,669.731z
							"/>
						<path fill="#FFFFFF" d="M879.908,635.853c4.014-5.777,9.535-10.778,16.518-12.501c-10.439,1.378-8.924-8.942-9.214-16.065
							c-1.146,5.096-5.56,16.918-11.802,8.508c-3.096-4.177-2.91-17.313,3.667-17.804c1.752-0.129,4.267,1.511,4.215,3.521
							c-0.062,2.151-2.916,3.137-3.041,0.467c-2.28,2.712,3.53,6.871,5.046,1.341c0.918-3.347-1.216-6.854-4.473-8.04
							c-7.568-2.762-11.914,9.638-10.027,21.565c1.651,10.404-0.36,30.847-9.131,42.687
							C871.589,651.528,876.554,640.677,879.908,635.853z"/>
						<path fill="#FFFFFF" d="M851.707,628.324c0.526,8.111-5.003,23.871-7.508,26.557c-0.021-3.085-0.907-6.333-1.644-8.262
							c0.634,10.753-10.438,29.234-16.087,31.74c-3.641,1.612-6.799,0.867-8.131-2.566c-1.021-2.621,0.684-6.324,4.042-5.795
							c-3.239-1.098-5.599,0.483-7.083,3.69c-1.021,2.189-0.712,4.236,0.066,6.428c0.942,2.63,1.094,4.234,0.938,7.071
							c-0.318,5.979-4.07,17.104-20.564,34.071C816.036,704.156,857.493,661.989,851.707,628.324z"/>
					</g>
					<g>
						<path fill="#FFFFFF" d="M773.72,763.421c-3.599,6.239,0.788,24.575-1.803,37.223c-3.171,15.496-16.525,33.43-5.587,52.062
							c7.579,12.911,19.665,25.378,11.748,39.855c15.929-15.396,8.468-32.455,7.165-35.252c-1.076-2.332-3.863-6.887-1.345-8.537
							c1.557-1.018,6.598,0.858,7.908,7.712c5.059-15.895-10.317-30.606-10.75-34.531c2.14,1.896,3.537,4.839,6.853,4.902
							c3.136,0.064,6.082-2.682,6.773-5.595c0.618-2.633-0.444-6.891-3.771-6.818c-1.528,0.037-3.568,1.306-3.677,3.016
							c-0.127,1.824,2.344,3.013,2.362,0.922c-0.034-0.124-0.022-0.124,0.018,0.006c-1.36,1.028-1.624-1.848,0.444-1.233
							c1.615,0.478,0.933,2.973-0.5,3.373c-6.788,1.908-5.99-11.251-5.74-15.466C785.109,788.842,773.236,778.664,773.72,763.421z"
							/>
						<path fill="#FFFFFF" d="M767.601,761.604c0,6.966-0.443,13.873-1.428,20.772c-1.249,8.771-3.198,17.442-5.642,25.959
							c-5.073,17.65-12.037,34.952-21.107,50.938c-2.363,4.161-4.907,8.236-7.671,12.15c-2.079,2.933-4.298,5.858-6.838,8.422
							c-5.78,5.805-12.676,10.85-20.304,13.906c-6.016,2.407-13.01,3.532-19.039,0.575c-3.242-1.584-5.975-4.21-7.956-7.202
							c-0.734-1.104-1.428-2.232-2.022-3.42c-0.146-0.294-0.292-0.586-0.436-0.885c-0.053-0.108-0.312-0.624-0.265-0.523
							c-0.866-2.147-1.4-4.276-1.646-6.581c-0.444-4.124,0.785-8.596,2.472-12.324c3.288-7.28,10.533-14.821,19.221-13.966
							c6.349,0.625,12.886,6.072,13.012,12.717c0.083,4.352-2.136,8.681-5.299,11.594c-2.821,2.614-7.338,4.535-10.553,1.444
							c-1.182-1.13-1.808-2.647-2.385-4.141c0.484,1.583,1.036,3.101,2.144,4.375c1.299,1.497,3.148,2.2,5.107,2.066
							c4.023-0.276,7.573-3.334,9.789-6.502c2.522-3.611,3.806-8.251,2.661-12.588c-0.867-3.28-3.012-5.62-5.455-7.808
							c-2.864-2.093-5.891-3.711-9.484-4.005c-4.24-0.347-8.324,1.012-11.834,3.329c-7.508,4.955-12.499,13.882-13.211,22.795
							c-0.39,4.852,0.74,9.592,3.075,13.846c2.098,3.818,4.71,7.328,8.299,9.871c3.736,2.64,8.195,3.959,12.748,3.995
							c8.606,0.07,16.919-3.884,23.856-8.664c5.956-4.104,11.167-9.017,15.534-14.772c5.737-7.569,10.349-15.924,14.48-24.457
							c4.032-8.299,7.451-16.896,10.409-25.632c5.624-16.595,9.442-33.987,10.129-51.526
							C768.142,770.762,767.928,766.191,767.601,761.604z"/>
						<path fill="#FFFFFF" d="M741.057,863.656c-0.575,1.503-1.172,3.012-1.5,4.594c-0.433,2.058-0.365,4.208-0.137,6.281
							c0.412,3.705,1.36,7.602,3.522,10.689c2.387,3.408,6.084,6.06,10.304,6.433c3.646,0.319,7.243-1.105,9.668-3.861
							c2.796-3.182,4.139-8.159,2.338-12.153c-1.643-3.655-6.115-6.098-9.949-4.362c-1.675,0.757-3.151,2.22-3.76,3.973
							c-0.261,0.789-0.387,1.737-0.017,2.521c0.188,0.408,0.49,0.747,0.871,0.977c0.063,0.043,0.743,0.282,0.532,0.108
							c-1.641-1.297-0.482-3.283,0.822-4.352c1.469-1.206,3.563-1.721,5.324-0.826c3.985,2.034,3.714,7.075,1.42,10.301
							c-2.19,3.098-6.065,4.096-9.554,2.669c-2.076-0.863-3.882-2.379-5.249-4.156c-1.275-1.651-2.067-3.54-2.795-5.485
							c-0.731-1.943-1.325-3.938-1.724-5.98c-0.408-2.015-0.307-4.005-0.181-6.039C741.014,864.542,741.041,864.104,741.057,863.656
							z"/>
						<path fill="#FFFFFF" d="M725.16,903.881c-2.993,6.373-4.564,13.648-2.564,20.556c-4.028-9.733-12.212-3.26-18.522,0.053
							c3.839-3.546,11.87-13.275,1.474-14.474c-5.167-0.593-16.46,6.13-13.585,12.083c0.757,1.578,3.438,2.936,5.154,1.877
							c1.833-1.12,1.264-4.089-1.116-2.86c1.205-3.329,7.713-0.376,3.684,3.7c-2.438,2.468-6.542,2.367-9.201,0.146
							c-6.176-5.174,2.387-15.136,13.662-19.465c9.835-3.774,26.542-15.74,32.394-29.253
							C734.581,888.839,727.658,898.56,725.16,903.881z"/>
						<path fill="#FFFFFF" d="M704.54,883.222c7.292-3.603,18.176-16.262,19.25-19.782c-2.683,1.533-5.938,2.387-7.98,2.71
							c9.631-4.83,20.106-23.663,19.439-29.799c-0.422-3.965-2.64-6.32-6.282-5.76c-2.781,0.43-5.131,3.749-2.99,6.396
							c-2.579-2.257-2.386-5.096-0.355-7.989c1.389-1.968,3.319-2.727,5.605-3.142c2.75-0.503,4.214-1.175,6.587-2.723
							c5.025-3.264,12.78-12.079,19.228-34.852C752.374,814.411,736.592,871.393,704.54,883.222z"/>
					</g>
				</g>
				<path fill="#FFFFFF" d="M797.134,781.271c11.729,4.162,11.771-7.722,11.771-7.722s10.281-5.983,0.807-14.056l5.641-9.776
					c0,0-27.58,0.042-32.589,8.733c3.205-5.558,20.855-5.592,20.855-5.592l-3.614,6.255c6.063,5.17-0.518,8.991-0.518,8.991
					s-0.03,7.609-7.527,4.941l-3.608,6.256c0,0-8.803-15.296-5.586-20.852c-5.018,8.687,8.73,32.591,8.73,32.591L797.134,781.271z"
					/>
			</g>
			<g>
				<g>
					<path fill="#FFFFFF" d="M833.471,389.863c-6.491,2.723-12.547,7.067-15.689,13.534c3.535-9.918-6.872-10.605-13.772-12.381
						c5.221-0.059,17.704-1.886,10.79-9.75c-3.437-3.907-16.317-6.487-18.176-0.148c-0.501,1.684,0.583,4.484,2.556,4.855
						c2.115,0.396,3.684-2.193,1.099-2.874c3.127-1.661,5.974,4.891,0.251,5.215c-3.458,0.195-6.444-2.63-6.923-6.063
						c-1.112-7.974,11.917-9.626,23.192-5.28c9.822,3.796,30.235,6.115,43.649,0.019
						C850.541,385.022,838.895,387.596,833.471,389.863z"/>
					<path fill="#FFFFFF" d="M837.346,396.581c-5.598,4.263-12.386,7.325-19.564,6.816c10.359,1.896,5.75,11.259,3.838,18.123
						c2.655-4.492,10.486-14.389,13.833-4.472c1.669,4.924-2.539,17.374-8.958,15.818c-1.704-0.416-3.592-2.748-2.919-4.649
						c0.723-2.026,3.738-2.088,3.034,0.489c3-1.872-1.244-7.62-4.398-2.82c-1.894,2.899-0.937,6.891,1.796,9.025
						c6.354,4.949,14.295-5.511,16.16-17.446c1.63-10.403,9.824-29.243,21.815-37.808
						C850.077,384.215,842.019,393.022,837.346,396.581z"/>
				</g>
				<g>
					<g>
						<path fill="#FFFFFF" d="M773.72,418.647c-3.599-6.238,0.788-24.575-1.803-37.224c-3.171-15.494-16.525-33.428-5.587-52.063
							c7.579-12.909,19.665-25.376,11.748-39.855c15.929,15.395,8.468,32.457,7.165,35.251c-1.076,2.328-3.863,6.888-1.345,8.537
							c1.557,1.016,6.598-0.86,7.908-7.713c5.059,15.897-10.317,30.606-10.75,34.533c2.14-1.897,3.537-4.835,6.853-4.899
							c3.136-0.063,6.082,2.682,6.773,5.592c0.618,2.633-0.444,6.893-3.771,6.819c-1.528-0.038-3.568-1.307-3.677-3.015
							c-0.127-1.827,2.344-3.018,2.362-0.925c-0.034,0.124-0.022,0.124,0.018-0.003c-1.36-1.029-1.624,1.846,0.444,1.23
							c1.615-0.477,0.933-2.964-0.5-3.372c-6.788-1.907-5.99,11.251-5.74,15.466C785.109,393.224,773.236,403.4,773.72,418.647z"/>
						<path fill="#FFFFFF" d="M767.601,420.464c0-6.968-0.443-13.873-1.428-20.772c-1.249-8.773-3.198-17.442-5.642-25.959
							c-5.073-17.653-12.037-34.951-21.107-50.938c-2.363-4.164-4.907-8.237-7.671-12.147c-2.079-2.938-4.298-5.862-6.838-8.422
							c-5.78-5.809-12.676-10.854-20.304-13.912c-6.016-2.409-13.01-3.528-19.039-0.576c-3.242,1.585-5.975,4.215-7.956,7.202
							c-0.734,1.103-1.428,2.234-2.022,3.418c-0.146,0.297-0.292,0.592-0.436,0.889c-0.053,0.108-0.312,0.627-0.265,0.524
							c-0.866,2.148-1.4,4.273-1.646,6.579c-0.444,4.125,0.785,8.598,2.472,12.325c3.288,7.28,10.533,14.821,19.221,13.97
							c6.349-0.627,12.886-6.074,13.012-12.721c0.083-4.351-2.136-8.68-5.299-11.595c-2.821-2.613-7.338-4.535-10.553-1.442
							c-1.182,1.131-1.808,2.649-2.385,4.146c0.484-1.59,1.036-3.108,2.144-4.38c1.299-1.496,3.148-2.201,5.107-2.066
							c4.023,0.279,7.573,3.335,9.789,6.501c2.522,3.613,3.806,8.25,2.661,12.589c-0.867,3.278-3.012,5.618-5.455,7.806
							c-2.864,2.093-5.891,3.708-9.484,4.005c-4.24,0.349-8.324-1.017-11.834-3.333c-7.508-4.956-12.499-13.878-13.211-22.79
							c-0.39-4.853,0.74-9.593,3.075-13.847c2.098-3.82,4.71-7.327,8.299-9.873c3.736-2.638,8.195-3.956,12.748-3.991
							c8.606-0.076,16.919,3.881,23.856,8.662c5.956,4.104,11.167,9.021,15.534,14.774c5.737,7.567,10.349,15.924,14.48,24.454
							c4.032,8.306,7.451,16.896,10.409,25.635c5.624,16.591,9.442,33.984,10.129,51.524
							C768.142,411.304,767.928,415.876,767.601,420.464z"/>
						<path fill="#FFFFFF" d="M741.057,318.412c-0.575-1.503-1.172-3.013-1.5-4.596c-0.433-2.052-0.365-4.208-0.137-6.284
							c0.412-3.702,1.36-7.595,3.522-10.683c2.387-3.408,6.084-6.065,10.304-6.437c3.646-0.322,7.243,1.105,9.668,3.859
							c2.796,3.186,4.139,8.164,2.338,12.16c-1.643,3.658-6.115,6.093-9.949,4.36c-1.675-0.756-3.151-2.219-3.76-3.972
							c-0.261-0.788-0.387-1.74-0.017-2.52c0.188-0.406,0.49-0.748,0.871-0.981c0.063-0.039,0.743-0.281,0.532-0.108
							c-1.641,1.3-0.482,3.287,0.822,4.353c1.469,1.21,3.563,1.721,5.324,0.825c3.985-2.036,3.714-7.074,1.42-10.298
							c-2.19-3.1-6.065-4.097-9.554-2.671c-2.076,0.863-3.882,2.383-5.249,4.156c-1.275,1.651-2.067,3.538-2.795,5.485
							c-0.731,1.943-1.325,3.942-1.724,5.981c-0.408,2.014-0.307,4.01-0.181,6.04C741.014,317.523,741.041,317.97,741.057,318.412z"
							/>
						<path fill="#FFFFFF" d="M725.16,278.193c-2.993-6.372-4.564-13.655-2.564-20.563c-4.028,9.731-12.212,3.26-18.522-0.047
							c3.839,3.539,11.87,13.269,1.474,14.47c-5.167,0.594-16.46-6.13-13.585-12.081c0.757-1.583,3.438-2.938,5.154-1.88
							c1.833,1.123,1.264,4.089-1.116,2.863c1.205,3.329,7.713,0.377,3.684-3.705c-2.438-2.466-6.542-2.364-9.201-0.143
							c-6.176,5.175,2.387,15.137,13.662,19.466c9.835,3.773,26.542,15.736,32.394,29.254
							C734.581,293.228,727.658,283.507,725.16,278.193z"/>
						<path fill="#FFFFFF" d="M704.54,298.845c7.292,3.607,18.176,16.266,19.25,19.783c-2.683-1.531-5.938-2.386-7.98-2.711
							c9.631,4.831,20.106,23.665,19.439,29.803c-0.422,3.964-2.64,6.319-6.282,5.759c-2.781-0.431-5.131-3.752-2.99-6.396
							c-2.579,2.258-2.386,5.096-0.355,7.986c1.389,1.972,3.319,2.728,5.605,3.145c2.75,0.502,4.214,1.177,6.587,2.721
							c5.025,3.271,12.78,12.082,19.228,34.856C752.374,367.656,736.592,310.672,704.54,298.845z"/>
					</g>
					<g>
						<path fill="#FFFFFF" d="M782.544,433.93c3.604,6.241,21.681,11.607,31.336,20.174c11.834,10.494,20.688,31.032,42.287,30.872
							c14.966-0.11,31.804-4.338,40.396,9.755c-5.372-21.493-23.876-23.561-26.948-23.836c-2.554-0.23-7.897-0.095-8.059-3.102
							c-0.11-1.855,4.031-5.283,10.624-2.988c-11.239-12.328-31.657-6.371-35.289-7.954c2.717-0.904,5.968-0.65,7.681-3.485
							c1.623-2.687,0.717-6.612-1.458-8.665c-1.962-1.858-6.193-3.063-7.784-0.145c-0.732,1.341-0.663,3.748,0.765,4.698
							c1.52,1.016,3.782-0.528,1.983-1.584c-0.123-0.038-0.123-0.046,0.008-0.018c0.213,1.693-2.407,0.485-0.84-0.998
							c1.22-1.16,3.036,0.676,2.667,2.122c-1.742,6.828-12.737-0.447-16.263-2.761C810.256,436.786,795.507,441.978,782.544,433.93z
							"/>
						<path fill="#FFFFFF" d="M777.913,438.329c6.032,3.482,11.788,7.313,17.274,11.615c6.973,5.472,13.512,11.493,19.664,17.867
							c12.751,13.222,24.251,27.9,33.561,43.75c2.422,4.132,4.677,8.364,6.683,12.719c1.506,3.266,2.929,6.652,3.876,10.134
							c2.14,7.901,3.06,16.397,1.896,24.536c-0.924,6.412-3.454,13.03-9.027,16.778c-2.99,2.01-6.637,3.066-10.214,3.286
							c-1.319,0.082-2.642,0.118-3.969,0.041c-0.324-0.025-0.656-0.043-0.991-0.063c-0.12-0.009-0.699-0.044-0.584-0.033
							c-2.293-0.326-4.395-0.927-6.511-1.867c-3.806-1.681-7.058-4.982-9.448-8.304c-4.656-6.488-7.568-16.529-2.483-23.628
							c3.719-5.185,11.705-8.125,17.521-4.909c3.811,2.1,6.446,6.19,7.399,10.377c0.846,3.757,0.259,8.628-4.033,9.87
							c-1.567,0.454-3.191,0.242-4.782-0.001c1.614,0.371,3.209,0.654,4.861,0.329c1.951-0.382,3.483-1.625,4.35-3.392
							c1.765-3.622,0.896-8.23-0.734-11.727c-1.875-3.989-5.247-7.426-9.578-8.604c-3.277-0.885-6.372-0.199-9.486,0.828
							c-3.24,1.433-6.162,3.245-8.208,6.208c-2.425,3.497-3.287,7.717-3.036,11.92c0.537,8.978,5.773,17.757,13.134,22.832
							c4.004,2.759,8.679,4.157,13.528,4.264c4.354,0.097,8.698-0.412,12.7-2.256c4.156-1.914,7.527-5.117,9.834-9.044
							c4.364-7.414,5.094-16.587,4.421-24.992c-0.576-7.207-2.229-14.18-5.025-20.834c-3.686-8.753-8.622-16.924-13.94-24.772
							c-5.176-7.637-10.906-14.894-16.991-21.827c-11.562-13.164-24.71-25.173-39.56-34.536
							C786.118,442.438,782.044,440.336,777.913,438.329z"/>
						<path fill="#FFFFFF" d="M853.02,512.335c1.015,1.256,2.025,2.527,3.228,3.608c1.567,1.394,3.467,2.416,5.372,3.25
							c3.414,1.498,7.261,2.623,11.021,2.296c4.135-0.364,8.287-2.239,10.72-5.708c2.11-3,2.661-6.826,1.484-10.3
							c-1.356-4.016-4.991-7.667-9.351-8.108c-3.99-0.406-8.338,2.25-8.752,6.44c-0.186,1.824,0.34,3.844,1.566,5.235
							c0.543,0.63,1.306,1.208,2.165,1.283c0.444,0.039,0.895-0.051,1.284-0.266c0.07-0.041,0.617-0.51,0.366-0.407
							c-1.947,0.77-3.089-1.229-3.364-2.888c-0.307-1.877,0.297-3.948,1.949-5.02c3.756-2.436,7.98,0.314,9.635,3.908
							c1.583,3.451,0.506,7.312-2.47,9.607c-1.79,1.373-3.999,2.179-6.223,2.475c-2.063,0.28-4.1,0.025-6.144-0.315
							c-2.046-0.343-4.081-0.829-6.05-1.496c-1.944-0.663-3.619-1.736-5.318-2.867C853.769,512.814,853.393,512.577,853.02,512.335z
							"/>
						<path fill="#FFFFFF" d="M879.908,546.215c4.014,5.774,9.535,10.779,16.518,12.499c-10.439-1.379-8.924,8.944-9.214,16.067
							c-1.146-5.097-5.56-16.915-11.802-8.513c-3.096,4.178-2.91,17.314,3.667,17.809c1.752,0.128,4.267-1.509,4.215-3.525
							c-0.062-2.147-2.916-3.133-3.041-0.465c-2.28-2.708,3.53-6.872,5.046-1.336c0.918,3.343-1.216,6.85-4.473,8.037
							c-7.568,2.762-11.914-9.636-10.027-21.564c1.651-10.405-0.36-30.846-9.131-42.686
							C871.589,530.537,876.554,541.391,879.908,546.215z"/>
						<path fill="#FFFFFF" d="M851.707,553.742c0.526-8.11-5.003-23.87-7.508-26.554c-0.021,3.086-0.907,6.334-1.644,8.263
							c0.634-10.751-10.438-29.241-16.087-31.742c-3.641-1.61-6.799-0.867-8.131,2.566c-1.021,2.622,0.684,6.322,4.042,5.797
							c-3.239,1.098-5.599-0.488-7.083-3.696c-1.021-2.188-0.712-4.233,0.066-6.426c0.942-2.628,1.094-4.23,0.938-7.065
							c-0.318-5.982-4.07-17.106-20.564-34.076C816.036,477.911,857.493,520.079,851.707,553.742z"/>
					</g>
				</g>
				<path fill="#FFFFFF" d="M809.712,422.575c9.475-8.073-0.807-14.048-0.807-14.048s-0.042-11.894-11.771-7.728l-5.639-9.774
					c0,0-13.749,23.905-8.731,32.591c-3.214-5.556,5.586-20.849,5.586-20.849l3.608,6.252c7.498-2.667,7.527,4.943,7.527,4.943
					s6.579,3.823,0.517,8.991l3.615,6.251c0,0-17.651-0.03-20.854-5.588c5.009,8.689,32.588,8.732,32.588,8.732L809.712,422.575z"/>
			</g>
		</g>
		<path fill="#FFFFFF" d="M492.788,825.528c-129.297,0-234.488-105.197-234.488-234.496c0-129.296,105.188-234.497,234.488-234.497
			c129.305,0,234.496,105.2,234.496,234.497C727.284,720.331,622.093,825.528,492.788,825.528z M492.788,362.808
			c-125.844,0-228.23,102.381-228.23,228.224c0,125.846,102.384,228.229,228.23,228.229c125.845,0,228.224-102.384,228.224-228.229
			C721.012,465.189,618.633,362.808,492.788,362.808z"/>
		<path fill="#FFFFFF" d="M492.788,910.943c-176.396,0-319.912-143.512-319.912-319.911c0-176.399,143.516-319.908,319.912-319.908
			c176.395,0,319.911,143.51,319.911,319.908C812.699,767.432,669.183,910.943,492.788,910.943z M492.788,277.389
			c-172.943,0-313.643,140.702-313.643,313.643c0,172.942,140.7,313.644,313.643,313.644c172.943,0,313.639-140.7,313.639-313.644
			C806.427,418.091,665.731,277.389,492.788,277.389z"/>
		<path fill="#8E8E8E" d="M370.403,644.951c7.525-6.277,10.818-15.263,8.584-23.45c-1.6-5.872-6.284-10.705-11.792-13.114
			c-3.638-1.592-8.584-1.829-11.774,0.873c-3.583,3.038-5.385,7.817-2.728,12.115c0.03-3.653,5.017-3.892,7.827-0.722
			c2.688,3.029,2.701,6.96,0.725,9.573c-2.385,3.14-5.396,4.149-9.25,3.531c-4.449-0.705-9.184-2.839-12.389-6.057
			c-6.99-7.028-6.474-17.808-3.926-24.896c7.083-19.732,25.174-36.537,43.714-44.66c9.889-4.337,21.038-7.618,32.96-10.086v113.231
			c0,5.927,0.229,20.22,0.229,20.22h98.15c1.477,0,3.134-0.004,4.902-0.029c0.063,0.021,0.157,0.029,0.282,0.029
			c55.481,0,101.204-5.162,119.229-23.079c9.803-9.75,14.783-22.336,14.783-37.407c0-23.174-31.411-58.449-89.988-75.213
			c0.979-4.206,1.508-9.043,1.508-14.632c0-46.736-46.138-46.736-68.13-46.736h-80.575c0,0-0.39,13.889-0.39,19.604v36.057
			c-11.648,1.883-23.024,4.68-34.452,8.909c-31.977,11.834-49.432,28.928-57.619,48.222c-6.617,15.596-2.491,31.771,7.729,42.03
			C337.143,648.415,357.487,655.709,370.403,644.951z M449.93,542.927c13.219-1.039,26.786-1.463,40.258-1.463
			c12.023,0,22.976,0.694,33.035,1.884c-1.449,10.529-5.475,18.398-12.126,23.532c-7.11,5.538-18.059,8.305-32.863,8.305h-28.302
			v-32.257H449.93z M491.331,678.756c-13.898,0-22.749-0.1-26.529-0.302c-3.776-0.2-6.852-0.767-9.194-1.687
			c-2.354-0.918-3.885-2.197-4.599-3.826c-0.714-1.634-1.077-5.52-1.077-11.65v-83.359h36.19c15.941,0,27.998,5.008,36.174,15.019
			c7.564,9.2,11.35,22.268,11.35,39.223c0,14.303-3.279,25.443-9.808,33.409C516.677,674.365,505.846,678.756,491.331,678.756z
			 M604.088,573.153c20.357,15.992,29.464,35.563,29.464,47.87c0,10.699-3.252,19.142-9.955,25.804
			c-11.068,11.007-31.956,17.721-63.386,20.306c7.27-7.334,12.238-18.393,12.238-35.129c0-49.026-43.258-52.561-67.626-55.616
			c19.051-2.851,45.116-1.64,53.721-25.873C579.469,556.786,594.171,565.361,604.088,573.153z M449.93,504.114
			c0-5.949,0.257-9.945,0.762-11.996c0.504-2.052,1.775-3.383,3.807-4c2.021-0.62,5.171-0.927,9.433-0.927h14.602
			c16.435,0,28.095,3.488,34.992,10.461c6.891,6.969,10.344,19.07,10.344,36.305c0,1.561-0.072,3.05-0.159,4.521
			c-11.06-1.388-22.786-2.166-35.188-2.166c-13.643,0-26.403,0-38.59,0.428v-32.628H449.93z"/>
	</g>
	<g>
		<path fill="#FFFFFF" d="M287.358,438.69l-10.183,14.001l-28.404-20.65l10.377-14.269c4.506-6.013,9.081-7.396,13.722-4.158
			c3.323,2.286,4.407,5.424,3.243,9.429c3.748-2.931,7.356-3.266,10.832-1.011C292.774,425.867,292.91,431.421,287.358,438.69z
			 M261.858,422.373l-4.514,6.211l7.534,5.473l4.704-6.473c2.114-2.907,1.861-5.24-0.755-7.014
			C266.36,418.78,264.036,419.378,261.858,422.373z M274.815,430.384l-5.185,7.133l8.455,6.146l5.188-7.132
			c2.37-3.259,2.155-5.836-0.638-7.736C279.729,426.681,277.122,427.209,274.815,430.384z"/>
		<path fill="#FFFFFF" d="M308.55,388.766c7.771,8.256,8.037,16.603,0.793,25.052c-8.182,7.538-16.535,7.575-25.063,0.101
			c-8.089-8.556-8.429-16.982-1.032-25.282C291.279,381.257,299.715,381.298,308.55,388.766z M302.992,394.523
			c-6.341-5.812-11.748-6.644-16.218-2.482c-3.921,4.692-2.938,10.101,2.946,16.235c6.266,5.743,11.711,6.529,16.332,2.365
			C310.206,406.025,309.186,400.654,302.992,394.523z"/>
		<path fill="#FFFFFF" d="M376.385,336.101l-6.78,3.594c-3.003-3.335-6.188-4.119-9.555-2.333c-5.292,3.047-5.941,8.444-1.96,16.194
			c4.064,7.211,9.327,9.354,15.786,6.425c4.241-1.997,6.724-6.268,7.446-12.815l3.134,5.918c-0.958,4.943-4.271,8.918-9.948,11.924
			c-9.883,4.613-17.761,1.95-23.645-7.998c-4.868-10.36-2.743-18.325,6.384-23.896C364.9,329.187,371.283,330.181,376.385,336.101z"
			/>
		<path fill="#FFFFFF" d="M421.93,344.627l-7.673,2.798l-5.504-6.512l-12.891,4.704l-0.019,8.529l-7.67,2.798l0.393-37.526
			l8.898-3.246L421.93,344.627z M395.477,324.546l0.183,15.756l9.667-3.53L395.477,324.546z"/>
		<path fill="#FFFFFF" d="M431.9,342.598l-7.429,1.938l-8.856-33.984l7.43-1.936L431.9,342.598z"/>
		<path fill="#FFFFFF" d="M498.634,335.399l-17.311-0.281l0.565-35.113l17.642,0.286c7.509,0.231,11.276,3.179,11.293,8.843
			c0.039,4.028-1.909,6.721-5.85,8.072c4.55,1.379,6.898,4.144,7.054,8.283C512.241,332.463,507.775,335.768,498.634,335.399z
			 M498.226,320.365l-8.823-0.146l-0.167,10.454l8.818,0.143c4.026,0.065,6.013-1.59,5.962-4.967
			C504.073,322.254,502.145,320.428,498.226,320.365z M497.328,305.156l-7.678-0.125l-0.149,9.312l8.003,0.128
			c3.592,0.059,5.356-1.491,5.301-4.651C502.858,306.774,501.025,305.216,497.328,305.156z"/>
		<path fill="#FFFFFF" d="M523.16,337.088l-7.637-0.784l3.591-34.934l7.633,0.785L523.16,337.088z"/>
		<path fill="#FFFFFF" d="M583.481,352.337l10.251-22.433l-2.076-0.95l1.901-4.159l2.078,0.951l3.534-7.727l5.939,2.717
			l-3.531,7.727l1.781,0.813l-1.897,4.16l-1.785-0.816l-10.256,22.432L583.481,352.337z M618.37,353.02l-0.476,1.041l3.269,1.493
			l-1.766,3.863l-3.27-1.494l-1.222,2.675c-1.441,3.41-3.871,4.276-7.291,2.594l-3.863-1.767l1.697-3.713l1.484,0.677
			c1.144,0.643,1.958,0.298,2.452-1.036l0.949-2.081l-16.637-7.607l1.766-3.862l16.637,7.607l0.475-1.04L618.37,353.02z
			 M602.338,352.337c0.165,1.993,0.065,3.92-0.312,5.786l-5.94-2.718c0.34-1.522,0.591-3.382,0.757-5.581L602.338,352.337z
			 M603.203,345.728l-5.346-2.445l6.793-14.857l8.465,3.874l0.478-1.042l-9.359-4.278l1.563-3.417l9.357,4.279l0.95-2.08
			l5.941,2.714l-0.952,2.081l1.784,0.818l0.747-1.636l5.498,2.511l-0.746,1.634l2.226,1.018l-1.559,3.419l-9.506-4.347l-0.477,1.04
			l8.321,3.802l-6.794,14.858l-5.349-2.445l0.952-2.082l-2.97-1.358l-0.954,2.079l-5.939-2.717l0.951-2.08l-3.125-1.424
			L603.203,345.728z M606.396,338.749l-0.815,1.781l3.123,1.425l0.813-1.783L606.396,338.749z M608.502,334.14l-0.749,1.636
			l3.122,1.427l0.746-1.634L608.502,334.14z M615.458,342.889l-0.817,1.785l2.975,1.357l0.813-1.782L615.458,342.889z
			 M620.536,339.643l-2.975-1.358l-0.745,1.635l2.973,1.356L620.536,339.643z"/>
		<path fill="#FFFFFF" d="M683.107,378.466c-3.096,2.21-5.812,3.671-8.157,4.369l-3.198-2.797l-0.967,1.108l5.041,4.404
			l-3.011,3.444l-0.983-0.857c-2.271,2.931-3.613,5.954-4.022,9.067l-1.181,1.353c4.85,1.062,9.733,0.193,14.641-2.604l4.794,4.191
			c-7.072,4.956-14.797,5.432-23.17,1.443l2.045-2.339c-2.012-4.649-0.987-9.461,3.076-14.445l-0.243-0.215l-10.318,11.806
			l-4.792-4.192l10.318-11.805l-0.373-0.323c-4.527,5.01-9.775,6.713-15.745,5.109l2.687-3.074c3.206-0.528,6.288-2.313,9.244-5.37
			l-1.717-1.503l3.01-3.443l5.901,5.158l1.396-1.6l4.554,3.98c2.403-0.935,4.732-2.44,6.987-4.522L683.107,378.466z
			 M666.625,364.062l3.69,3.226c-1.096,3.237-2.42,5.909-3.977,8.021l-4.057-3.548C663.838,369.651,665.286,367.083,666.625,364.062
			z M670.298,360.108l9.96,8.707c1.977,1.875,4.316,3.338,7.011,4.393l-3.228,3.69c-2.153-1.015-4.252-2.417-6.3-4.21l-10.453-9.134
			L670.298,360.108z M671.917,368.683l3.688,3.224c-0.688,2.437-1.736,4.634-3.148,6.58l-4.06-3.549
			C669.463,373.556,670.635,371.471,671.917,368.683z M671.282,391.994l2.798-3.2c4.953,1.441,9.58,0.864,13.885-1.74l4.922,4.299
			C686.153,395.74,678.953,395.955,671.282,391.994z M678.593,383.632l2.79-3.198c3.947,1.277,7.81,0.749,11.586-1.591l5.164,4.519
			C691.375,387.29,684.862,387.376,678.593,383.632z"/>
		<path fill="#FFFFFF" d="M731.73,452.108l-3.317-5.242l-18.086,11.435l-4.014-6.351l18.083-11.438l-3.054-4.829l-14.772,9.341
			l-3.842-6.071l18.775-11.876l6.896,10.906l4.006-2.53l-7.596-12.013l4.002-2.531l12.483,19.741
			c2.178,3.649,4.867,6.976,8.052,9.982l-4.139,2.62c-2.809-2.606-5.273-5.688-7.393-9.243l-1.394-2.209l-4.004,2.536l7.16,11.316
			l-13.392,8.471c-3.566,2.509-6.557,1.756-8.963-2.256l-2.356-3.731l4.004-2.53l1.133,1.795c0.606,1.161,1.476,1.319,2.616,0.469
			L731.73,452.108z"/>
		<path fill="#FFFFFF" d="M775.038,574.383l-1.374-6.107l-3.979,4.952l-3.667-4.256l5.426-3.446l-5.971-2.574l3.016-4.701
			l4.643,4.168l0.416-6.27l5.338,0.992l-2.232,6.106l6.242-1.713l0.515,5.693l-6.445-0.563l3.31,5.766L775.038,574.383z"/>
		<path fill="#FFFFFF" d="M775.503,596.491l-0.916-6.189l-4.333,4.644l-3.342-4.523l5.668-3.029l-5.765-3.009l3.356-4.47l4.32,4.508
			l0.878-6.22l5.251,1.38l-2.681,5.924l6.353-1.243l0.09,5.714l-6.388-1.038l2.873,5.997L775.503,596.491z"/>
		<path fill="#FFFFFF" d="M774.199,618.717l-0.415-6.244l-4.7,4.277l-2.963-4.775l5.894-2.564l-5.504-3.466l3.707-4.182l3.942,4.84
			l1.38-6.129l5.121,1.802l-3.149,5.686l6.428-0.729l-0.369,5.708l-6.28-1.551l2.384,6.206L774.199,618.717z"/>
		<path fill="#FFFFFF" d="M771.18,640.769l0.077-6.26l-5.016,3.898l-2.583-4.989l6.077-2.099l-5.216-3.885l4.02-3.877l3.554,5.133
			l1.854-6.006l4.965,2.198l-3.586,5.425l6.468-0.224l-0.814,5.66l-6.145-2.041l1.889,6.379L771.18,640.769z"/>
		<path fill="#FFFFFF" d="M701.995,738.387l9.832-14.25l28.908,19.934l-10.012,14.523c-4.355,6.123-8.895,7.623-13.618,4.498
			c-3.379-2.198-4.539-5.313-3.481-9.343c-3.668,3.025-7.27,3.446-10.803,1.278C696.901,751.339,696.626,745.794,701.995,738.387z
			 M714.741,746.383l5.003-7.263l-8.607-5.936l-5.004,7.262c-2.285,3.313-2.01,5.89,0.83,7.714
			C709.922,750.198,712.514,749.609,714.741,746.383z M727.894,754.064l4.357-6.321l-7.667-5.285l-4.543,6.588
			c-2.04,2.961-1.729,5.286,0.934,6.993C723.482,757.771,725.793,757.109,727.894,754.064z"/>
		<path fill="#FFFFFF" d="M682.076,788.8c-7.977-8.062-8.452-16.395-1.417-25.025c7.99-7.741,16.342-7.982,25.052-0.729
			c8.297,8.353,8.849,16.773,1.66,25.246C699.525,795.875,691.093,796.041,682.076,788.8z M687.487,782.902
			c6.488,5.657,11.912,6.349,16.272,2.08c3.803-4.792,2.687-10.175-3.351-16.16c-6.406-5.581-11.868-6.232-16.384-1.958
			C679.988,771.588,681.141,776.935,687.487,782.902z"/>
		<path fill="#FFFFFF" d="M615.532,843.168l6.696-3.759c3.079,3.256,6.286,3.957,9.607,2.092c5.21-3.182,5.727-8.595,1.556-16.236
			c-4.246-7.108-9.561-9.125-15.944-6.034c-4.192,2.106-6.563,6.44-7.125,12.999l-3.279-5.836c0.834-4.967,4.048-9.024,9.648-12.169
			c9.759-4.86,17.708-2.393,23.833,7.406c5.129,10.229,3.203,18.247-5.783,24.043C627.192,849.793,620.791,848.959,615.532,843.168z
			"/>
		<path fill="#FFFFFF" d="M569.812,835.779l7.601-2.989l5.667,6.374l12.767-5.028l-0.197-8.525l7.6-2.992l0.554,37.526l-8.815,3.469
			L569.812,835.779z M596.762,855.192l-0.578-15.748l-9.577,3.771L596.762,855.192z"/>
		<path fill="#FFFFFF" d="M559.917,838.057l7.374-2.124l9.714,33.75l-7.379,2.122L559.917,838.057z"/>
		<path fill="#FFFFFF" d="M493.35,846.942l17.313-0.28l0.571,35.114l-17.639,0.287c-7.514,0.007-11.373-2.81-11.57-8.473
			c-0.176-4.026,1.685-6.778,5.579-8.259c-4.591-1.23-7.031-3.917-7.316-8.048C479.847,850.32,484.2,846.874,493.35,846.942z
			 M494.251,861.958l8.815-0.142l-0.17-10.452l-8.819,0.144c-4.026,0.063-5.957,1.782-5.794,5.155
			C488.339,860.258,490.327,862.023,494.251,861.958z M495.639,877.128l7.674-0.123l-0.148-9.313l-8.002,0.134
			c-3.594,0.058-5.313,1.664-5.151,4.818C490.061,875.692,491.938,877.188,495.639,877.128z"/>
		<path fill="#FFFFFF" d="M468.803,845.841l7.653,0.591l-2.719,35.014l-7.653-0.596L468.803,845.841z"/>
		<path fill="#FFFFFF" d="M388.587,839.222l5.407,2.309l-6.415,15.022l-8.562-3.654l-0.45,1.05l9.464,4.041l-1.476,3.456
			l-9.465-4.043l-0.898,2.104l-6.01-2.566l0.9-2.103l-1.803-0.77l-0.705,1.65l-5.557-2.374l0.706-1.652l-2.255-0.962l1.477-3.455
			l9.614,4.106l0.448-1.052l-8.41-3.592l6.41-15.021l5.409,2.309l-0.896,2.103l3.005,1.283l0.896-2.104l6.01,2.568l-0.899,2.102
			l3.153,1.348L388.587,839.222z M373.241,832.313l0.451-1.051l-3.308-1.413l1.671-3.906l3.305,1.412l1.152-2.705
			c1.354-3.441,3.763-4.367,7.225-2.773l3.905,1.667l-1.601,3.759l-1.501-0.646c-1.163-0.61-1.965-0.249-2.425,1.1l-0.898,2.107
			l16.824,7.179l-1.665,3.908l-16.824-7.185l-0.448,1.048L373.241,832.313z M371.416,845.744l3.002,1.282l0.707-1.653l-3.007-1.279
			L371.416,845.744z M376.406,842.371l0.772-1.805l-3.004-1.283l-0.771,1.801L376.406,842.371z M383.581,850.937l0.706-1.648
			l-3.151-1.35l-0.709,1.654L383.581,850.937z M385.569,846.281l0.77-1.802l-3.154-1.348l-0.769,1.8L385.569,846.281z
			 M408.135,832.121l-9.687,22.681l2.106,0.898l-1.796,4.205l-2.103-0.898l-3.336,7.81l-6.009-2.564l3.335-7.811l-1.804-0.772
			l1.798-4.203l1.804,0.77l9.683-22.681L408.135,832.121z M389.288,832.594c-0.22-1.989-0.163-3.921,0.161-5.793l6.01,2.569
			c-0.299,1.525-0.502,3.393-0.616,5.595L389.288,832.594z"/>
		<path fill="#FFFFFF" d="M312.244,803.199l-2.714,3.265c-3.976-1.179-7.823-0.552-11.54,1.872l-5.277-4.384
			C299.372,799.86,305.878,799.607,312.244,803.199z M319.343,794.657l-2.717,3.265c-4.988-1.318-9.604-0.622-13.839,2.089
			l-5.024-4.178C304.382,791.279,311.575,790.888,319.343,794.657z M321.118,826.504l-10.177-8.456
			c-2.022-1.822-4.394-3.227-7.113-4.21l3.132-3.771c2.175,0.959,4.312,2.309,6.405,4.047l10.675,8.876L321.118,826.504z
			 M307.858,808.473c3.037-2.29,5.721-3.813,8.047-4.571l3.266,2.719l0.938-1.133l-5.149-4.281l2.921-3.515l1.007,0.837
			c2.2-2.987,3.465-6.044,3.795-9.166l1.147-1.382c-4.878-0.94-9.734,0.048-14.572,2.965l-4.9-4.073
			c6.952-5.124,14.661-5.792,23.128-2.011l-1.982,2.385c2.121,4.599,1.22,9.436-2.725,14.52l0.25,0.208l10.026-12.063l4.901,4.075
			l-10.025,12.06l0.377,0.312c4.4-5.121,9.602-6.954,15.617-5.496l-2.613,3.14c-3.187,0.604-6.227,2.468-9.108,5.592l1.754,1.465
			l-2.922,3.518l-6.032-5.011l-1.357,1.633l-4.644-3.865c-2.385,0.993-4.677,2.559-6.879,4.695L307.858,808.473z M319.289,817.976
			l-3.77-3.132c0.626-2.457,1.623-4.673,2.986-6.654l4.141,3.444C321.617,813.043,320.5,815.158,319.289,817.976z M324.69,822.465
			l-3.769-3.135c1.017-3.264,2.271-5.967,3.774-8.117l4.145,3.445C327.341,816.811,325.955,819.41,324.69,822.465z"/>
		<path fill="#FFFFFF" d="M257.429,736.078l3.448,5.159l17.794-11.884l4.17,6.251l-17.793,11.884l3.18,4.754l14.528-9.707
			l3.995,5.971l-18.475,12.342l-7.166-10.729l-3.939,2.631l7.891,11.816l-3.937,2.632l-12.973-19.423
			c-2.267-3.592-5.033-6.852-8.299-9.778l4.072-2.722c2.871,2.536,5.415,5.55,7.624,9.055l1.448,2.169l3.937-2.63l-7.435-11.136
			l13.174-8.801c3.501-2.602,6.506-1.925,9.019,2.032l2.448,3.665l-3.937,2.629l-1.183-1.765c-0.629-1.149-1.51-1.28-2.627-0.404
			L257.429,736.078z"/>
		<path fill="#FFFFFF" d="M212.376,627.346l1.792,6.001l3.627-5.217l3.952,3.992l-5.175,3.813l6.138,2.156l-2.686,4.897
			l-4.921-3.841l0.016,6.288l-5.392-0.622l1.806-6.249l-6.105,2.145l-0.911-5.644l6.474,0.118l-3.704-5.528L212.376,627.346z"/>
		<path fill="#FFFFFF" d="M210.418,605.241l1.32,6.12l4.028-4.919l3.625,4.293l-5.46,3.396l5.949,2.629l-3.058,4.675l-4.604-4.213
			l-0.476,6.264l-5.326-1.039l2.286-6.087l-6.252,1.654l-0.467-5.7l6.442,0.626l-3.255-5.798L210.418,605.241z"/>
		<path fill="#FFFFFF" d="M210.077,583.414l0.916,6.195l4.336-4.646l3.342,4.519l-5.668,3.036l5.767,3.011l-3.359,4.462l-4.32-4.501
			l-0.88,6.222l-5.248-1.387l2.68-5.924l-6.353,1.245l-0.091-5.717l6.389,1.042l-2.876-6L210.077,583.414z"/>
		<path fill="#FFFFFF" d="M211.67,560.905l0.36,6.254l4.735-4.239l2.917,4.8l-5.916,2.513l5.471,3.518l-3.747,4.145l-3.896-4.875
			l-1.435,6.119l-5.102-1.852l3.2-5.658l-6.437,0.669l0.422-5.703l6.266,1.608l-2.323-6.232L211.67,560.905z"/>
	</g>
</g>
<g>
	<path fill="#FFFFFF" d="M1139.015,406.738V313.12h26.526c15.604,0,23.406,1.049,23.406,3.121c0,2.096-0.537,4.681-1.563,7.801
		c-1.047,5.218-1.559,11.971-1.559,20.285v62.411h24.963v40.568h-24.963v215.321h-46.811V447.307h-40.568v-40.568H1139.015z
		 M1299.728,339.646v-31.207h23.404c15.604,1.049,23.916,2.098,24.965,3.121c0,2.098-0.537,4.682-1.561,7.802
		c-1.049,4.169-1.561,7.802-1.561,10.923v9.361h29.646c-1.049-1.023-5.219-7.265-12.482-18.724l42.127-20.284
		c13.506,23.941,20.797,36.936,21.844,39.008h26.527v34.326h-107.662v17.164h85.816v143.549h-15.604v14.042h51.49v32.767h-51.49
		v56.17c5.193,21.844-22.379,32.766-82.695,32.766c1.023-15.602-3.121-32.254-12.482-49.928
		c35.352,4.168,50.441-1.025,45.248-15.604v-23.404h-87.377c2.072,4.17,6.242,11.459,12.484,21.844
		c3.119,7.289,7.264,14.578,12.482,21.844l-42.129,18.725c-11.459-19.748-20.82-34.838-28.086-45.25l34.326-17.162h-65.533v-32.767
		h163.832v-18.724h15.604v-18.725h-35.887v23.406h-45.248v-23.406h-32.768v21.845h-43.688V391.136h76.455v-17.164h-92.059v-34.326
		H1299.728z M1299.728,420.781h-32.768v17.163h32.768V420.781z M1299.728,483.194V466.03h-32.768v17.164H1299.728z
		 M1380.863,437.944v-17.163h-35.887v17.163H1380.863z M1380.863,466.03h-35.887v17.164h35.887V466.03z"/>
	<path fill="#FFFFFF" d="M1649.236,470.712h74.895v40.566h-76.455v28.086l24.965-17.164c15.602,17.7,34.326,39.01,56.17,63.973
		c-12.482,7.289-24.965,16.652-37.445,28.086c-12.484-17.676-27.063-35.35-43.689-53.049v107.66h-46.809v-96.74
		c-17.701,24.967-38.496,46.299-62.414,63.975c-13.529-11.436-24.963-20.797-34.324-28.088
		c38.471-29.107,64.996-61.363,79.574-96.738h-70.213v-40.566h87.377v-20.285c15.602,1.049,28.084,1.561,37.445,1.561
		c8.314,1.049,12.996,2.097,14.043,3.121c0,2.096-0.535,4.168-1.559,6.24C1649.748,464.47,1649.236,467.591,1649.236,470.712z
		 M1515.048,331.844c89.449-1.024,150.303-9.874,182.557-26.524c2.072-1.024,3.633-1.561,4.682-1.561
		c20.795,23.94,33.277,41.104,37.447,51.489c-76.992,9.362-144.598,16.651-202.84,21.845
		C1531.675,361.489,1524.412,346.423,1515.048,331.844z M1527.531,395.816c13.506-4.146,26.525-8.825,39.008-14.042
		c13.508,27.061,22.357,47.346,26.525,60.852c-13.531,5.217-26.525,9.361-39.008,12.482c-1.047-2.072-2.096-4.145-3.121-6.242
		C1540.525,423.901,1532.724,406.226,1527.531,395.816z M1597.746,381.774l42.129-4.682c5.191,21.844,9.361,42.129,12.48,60.852
		c-6.24,0-13.529,0.537-21.842,1.561c-9.363,2.097-16.652,2.609-21.846,1.561C1605.546,415.076,1601.89,395.305,1597.746,381.774z
		 M1691.365,459.789c-12.484-4.145-24.455-7.802-35.889-10.923c1.025-4.145,2.584-8.824,4.682-14.043
		c13.506-32.229,21.844-54.073,24.965-65.532c19.748,7.29,34.838,13.019,45.25,17.163c0,1.049-2.609,6.242-7.803,15.604
		C1711.113,421.829,1700.726,441.065,1691.365,459.789z M1675.761,636.104c73.846-22.869,123.775-60.316,149.789-112.344
		c8.313,6.242,22.867,18.725,43.688,37.449c-44.736,47.857-96.738,85.279-156.031,112.342c-1.047-1.049-2.094-2.609-3.119-4.682
		C1699.677,655.339,1688.242,644.417,1675.761,636.104z M1817.748,423.901c24.965,20.82,39.01,33.303,42.129,37.447
		c-1.047,1.049-2.096,1.561-3.119,1.561c-3.121,2.098-12.484,10.922-28.086,26.525c-21.846,23.941-48.371,46.81-79.576,68.654
		c-15.604-14.555-30.184-25.479-43.688-32.766C1743.878,506.599,1781.326,472.808,1817.748,423.901z M1714.769,427.022
		c39.52-25.988,69.676-62.924,90.498-110.781c10.385,6.241,26.523,16.14,48.369,29.645c-34.328,43.689-67.631,79.064-99.859,106.102
		c-1.049,0-2.098-0.512-3.121-1.561C1738.173,441.065,1726.203,433.263,1714.769,427.022z"/>
	<path fill="#FFFFFF" d="M2107.964,370.852v54.61h115.463v163.832c5.193,30.182-21.332,42.641-79.576,37.447
		c-1.047,0-1.561-1.561-1.561-4.68c-3.119-17.676-7.801-33.279-14.043-46.811c29.109,3.121,42.641-2.072,40.57-15.604v-88.936
		h-62.414V667.31h-51.488V470.712h-59.293V617.38h-51.49V425.462h110.783v-49.93c-13.531,1.049-33.305,1.561-59.293,1.561
		c-26.012,1.049-45.248,1.561-57.73,1.561c-5.219-15.604-11.459-32.23-18.725-49.93c120.656,4.168,214.785-2.585,282.416-20.285
		c3.121,0,5.191-0.512,6.242-1.559c29.107,37.447,43.15,56.17,42.127,56.17c-16.652,1.049-40.568,2.609-71.773,4.681
		C2146.972,369.827,2123.568,370.852,2107.964,370.852z"/>
</g>
<g>
	<path fill="#FFFFFF" d="M997.142,956.748h-47.851V830.286h47.851c29.159,0,44.433,10.938,45.8,32.812
		c-0.459,13.224-7.979,22.334-22.559,27.344v0.684c17.773,5.02,27.109,15.957,28.027,32.812
		C1046.584,944.903,1029.494,955.84,997.142,956.748z M976.635,880.871h21.19c11.386,0,17.313-4.785,17.772-14.355
		c-0.459-10.019-6.387-15.039-17.772-15.039h-21.19V880.871z M976.635,935.558h21.19c15.038,0.918,22.323-4.551,21.874-16.406
		c0.449-11.846-6.836-17.538-21.874-17.09h-21.19V935.558z"/>
	<path fill="#FFFFFF" d="M1147.529,956.748h-81.347V830.286h26.659v105.271h54.688V956.748z"/>
	<path fill="#FFFFFF" d="M1219.304,958.115c-39.646-0.919-59.93-22.323-60.837-64.257c0.907-42.83,21.191-64.939,60.837-66.307
		c38.729,1.367,58.787,23.477,60.154,66.307C1278.091,935.792,1258.033,957.196,1219.304,958.115z M1219.304,847.376
		c-21.875,0-32.588,15.498-32.129,46.482c-0.459,30.996,10.254,46.26,32.129,45.8c20.955,0,31.443-15.263,31.443-45.8
		C1250.748,862.874,1240.259,847.376,1219.304,847.376z"/>
	<path fill="#FFFFFF" d="M1399.085,871.301h-28.711c-0.918-15.039-9.121-23.007-24.609-23.925
		c-15.039,0.918-23.018,16.405-23.926,46.482c0.908,30.078,8.887,45.352,23.926,45.8c15.488-0.448,23.691-8.427,24.609-23.925
		h28.711c-1.828,27.803-19.6,41.923-53.32,42.382c-34.178-0.919-51.727-22.323-52.635-64.257
		c0.908-42.83,18.457-64.939,52.635-66.307C1379.486,828.471,1397.257,843.05,1399.085,871.301z"/>
	<path fill="#FFFFFF" d="M1442.15,830.286v54.687l42.383-54.687h31.443l-46.482,56.737l50.584,69.725h-33.494l-44.434-64.256v64.256
		h-27.344V830.286H1442.15z"/>
	<path fill="#FFFFFF" d="M1631.501,871.301h-28.711c-0.918-15.039-9.121-23.007-24.609-23.925
		c-15.037,0.918-23.016,16.405-23.924,46.482c0.908,30.078,8.887,45.352,23.924,45.8c15.488-0.448,23.691-8.427,24.609-23.925
		h28.711c-1.826,27.803-19.6,41.923-53.32,42.382c-34.178-0.919-51.727-22.323-52.635-64.257
		c0.908-42.83,18.457-64.939,52.635-66.307C1611.902,828.471,1629.675,843.05,1631.501,871.301z"/>
	<path fill="#FFFFFF" d="M1674.566,956.748h-26.658V830.286h26.658v49.901h47.852v-49.901h27.342v126.462h-26.658v-55.37h-48.535
		V956.748z"/>
	<path fill="#FFFFFF" d="M1789.408,956.748h-25.977l45.801-126.462h32.127l44.434,126.462h-27.344l-9.57-26.659h-49.9
		L1789.408,956.748z M1805.814,908.897h36.229l-17.09-54.003h-0.682L1805.814,908.897z"/>
	<path fill="#FFFFFF" d="M1925.439,830.286v126.462h-27.342V830.286H1925.439z"/>
	<path fill="#FFFFFF" d="M2061.472,956.748h-38.965l-49.217-105.271l-0.684,0.684v104.588h-25.293V830.286h40.332l47.85,99.803
		l0.684-0.684v-99.119h25.293V956.748z"/>
	<path fill="#FFFFFF" d="M2131.197,956.748h-47.852V830.286h47.852c29.158,0,44.432,10.938,45.799,32.812
		c-0.459,13.224-7.979,22.334-22.559,27.344v0.684c17.773,5.02,27.109,15.957,28.027,32.812
		C2180.638,944.903,2163.548,955.84,2131.197,956.748z M2110.689,880.871h21.191c11.385,0,17.313-4.785,17.771-14.355
		c-0.459-10.019-6.387-15.039-17.771-15.039h-21.191V880.871z M2110.689,935.558h21.191c15.037,0.918,22.322-4.551,21.873-16.406
		c0.449-11.846-6.836-17.538-21.873-17.09h-21.191V935.558z"/>
	<path fill="#FFFFFF" d="M2198.187,956.748V830.286h84.764v21.19h-57.42v29.395h53.318v21.19h-53.318v33.496h59.471v21.19H2198.187z
		"/>
	<path fill="#FFFFFF" d="M2296.623,851.477v-21.19h102.537v21.19h-37.598v105.271h-27.344V851.477H2296.623z"/>
</g>
<path fill="#AF8510" d="M3341.119,1307.938c-174.141,0-315.309,141.169-315.309,315.309s141.168,315.308,315.309,315.308
	c174.139,0,315.308-141.168,315.308-315.308S3515.257,1307.938,3341.119,1307.938z M3341.119,1879.415
	c-141.479,0-256.169-114.69-256.169-256.168c0-141.479,114.69-256.168,256.169-256.168c141.477,0,256.168,114.689,256.168,256.168
	C3597.287,1764.725,3482.595,1879.415,3341.119,1879.415z"/>
</svg>
