<?xml version="1.0" encoding="utf-8"?>
<!-- Generator: Adobe Illustrator 16.0.0, SVG Export Plug-In . SVG Version: 6.00 Build 0)  -->
<!DOCTYPE svg PUBLIC "-//W3C//DTD SVG 1.1//EN" "http://www.w3.org/Graphics/SVG/1.1/DTD/svg11.dtd">
<svg version="1.1" id="图层_1" xmlns="http://www.w3.org/2000/svg" xmlns:xlink="http://www.w3.org/1999/xlink" x="0px" y="0px"
	 width="1000px" height="1000px" viewBox="0 0 1000 1000" enable-background="new 0 0 1000 1000" xml:space="preserve">
<path fill="#4D99EA" d="M519,458l75,86c6-14,19-29,31-36l-81-93C537,430,531,444,519,458z M812,280l-81,207c19,0,31,7,44,21l75-200
	C838,301,825,287,812,280z M706,734c56,0,100-45,100-102s-43-102-100-102c-56,0-100,45-100,102C612,689,656,734,706,734z M706,587
	c25,0,50,25,50,51c0,25-19,51-50,51s-50-25-50-51C656,606,681,587,706,587z M900,258c57,0,101-45,100-102c-1-53-45-96-98-98
	c-57,0-102,44-102,101C806,215,850,258,900,258z M900,109c25,0,50,25,50,50s-19,50-50,50c-13,0-26-7-36-17c-15-16-15-39-4-57
	C869,120,883,109,900,109z M294,430L188,573c12,14,25,29,31,43l106-143C312,458,300,444,294,430z M194,714c0-58-44-102-100-102
	c-50,6-94,51-94,102c0,58,44,102,100,102C150,816,194,771,194,714z M50,714c0-26,19-51,50-51s50,26,50,51c0,26-19,51-50,51
	S50,746,50,714z M931,825c0,29-25,57-56,57H194c-19,0-38-14-44-36c-19,7-31,7-50,7c0,43,31,86,75,86h731c38,0,75-36,75-86V274
	c-12,7-31,14-50,21V825L931,825z M144,192c0-29,19-57,50-57h562c0-21,6-36,19-57H169c-38,0-75,36-75,86v393c19,0,31,0,50,7V192z
	 M413,451c56,0,100-42,100-97s-41-93-98-93c-58,0-96,45-96,93C319,417,363,451,413,451z M413,312c25,0,50,24,50,48s-19,48-50,48
	c-25,0-48-16-50-48C363,328,388,312,413,312z"/>
</svg>
