<?xml version="1.0" encoding="utf-8"?>
<!-- Generator: Adobe Illustrator 16.0.0, SVG Export Plug-In . SVG Version: 6.00 Build 0)  -->
<!DOCTYPE svg PUBLIC "-//W3C//DTD SVG 1.1//EN" "http://www.w3.org/Graphics/SVG/1.1/DTD/svg11.dtd">
<svg version="1.1" id="图层_1" xmlns="http://www.w3.org/2000/svg" xmlns:xlink="http://www.w3.org/1999/xlink" x="0px" y="0px"
	 width="1000px" height="1000px" viewBox="0 0 1000 1000" enable-background="new 0 0 1000 1000" xml:space="preserve">
<path fill="#4D99EA" d="M990.03,512.961c0-139.581-62.812-266.201-159.521-351.944c2.991-9.97,6.979-22.931,6.979-36.89
	c0-56.829-46.859-99.701-99.7-99.701c-32.901,0-62.813,16.949-79.762,39.88c-42.871-12.961-86.739-19.94-132.602-19.94
	c-226.321,0-415.753,163.509-458.624,375.872C26.919,433.2,0,470.09,0,512.961s26.919,79.761,66.8,92.722
	c46.859,209.372,232.303,368.894,455.633,368.894c92.722,0,179.462-26.919,252.243-72.781c16.949,12.961,36.89,19.939,59.82,19.939
	c56.83,0,99.701-46.859,99.701-99.7c0-22.932-6.979-42.872-19.94-59.821C964.107,692.423,990.03,606.68,990.03,512.961z
	 M122.632,616.65c46.859-9.971,79.76-49.851,79.76-99.701s-32.901-89.73-79.76-99.701
	c42.871-182.452,206.38-319.042,401.794-319.042c39.88,0,76.77,6.979,112.662,16.949v12.961c0,56.83,46.859,99.701,99.7,99.701
	c22.932,0,46.859-9.97,62.813-22.931c86.739,76.77,139.581,186.441,139.581,309.073c0,79.761-22.932,156.53-62.812,219.342
	c-12.961-6.979-26.92-9.97-39.881-9.97c-56.829,0-99.701,46.859-99.701,99.701c0,12.961,2.991,26.919,9.971,39.88
	c-62.812,39.881-136.59,62.812-219.342,62.812C329.013,928.714,166.5,796.111,122.632,616.65z"/>
<path fill="#4D99EA" d="M525.424,310.568c-109.671,0-202.393,89.73-202.393,202.393s89.73,202.393,202.393,202.393
	s202.393-88.733,202.393-202.393C727.816,399.302,635.095,310.568,525.424,310.568z M525.424,676.471
	c-89.73,0-162.513-72.782-162.513-162.513s72.782-163.509,162.513-163.509s162.513,72.782,162.513,162.512
	C687.937,602.692,615.154,676.471,525.424,676.471z"/>
</svg>
