<?xml version="1.0" encoding="utf-8"?>
<!-- Generator: Adobe Illustrator 16.0.0, SVG Export Plug-In . SVG Version: 6.00 Build 0)  -->
<!DOCTYPE svg PUBLIC "-//W3C//DTD SVG 1.1//EN" "http://www.w3.org/Graphics/SVG/1.1/DTD/svg11.dtd">
<svg version="1.1" id="图层_1" xmlns="http://www.w3.org/2000/svg" xmlns:xlink="http://www.w3.org/1999/xlink" x="0px" y="0px"
	 width="1000px" height="1000px" viewBox="0 0 1000 1000" enable-background="new 0 0 1000 1000" xml:space="preserve">
<path fill="#4D99EA" d="M812.375,406.188c-51.896,0-93.813,41.916-93.813,93.813s41.916,93.813,93.813,93.813l0,0
	c51.896,0,93.813-41.916,93.813-93.813S864.271,406.188,812.375,406.188z M812.375,530.938c-16.966,0-30.938-13.973-30.938-30.938
	s13.972-30.938,30.938-30.938c16.967,0,30.938,13.973,30.938,30.938C843.313,515.968,829.342,530.938,812.375,530.938z"/>
<path fill="#4D99EA" d="M905.189,313.373H752.495c-24.95,0-48.902,9.98-65.868,26.946L483.034,544.91
	c-17.964,17.964-26.946,40.918-26.946,65.868s9.98,48.902,26.946,65.868l152.694,152.695c17.964,17.964,41.916,26.945,65.868,26.945
	s47.904-8.981,65.868-26.945l203.593-203.594l0,0c17.965-17.964,26.946-40.918,26.946-65.868V407.186
	C999.002,355.29,957.086,313.373,905.189,313.373z M937.126,559.88c0,7.984-2.994,15.969-8.982,21.956L723.553,786.427
	c-11.976,11.977-31.936,11.977-43.912,0L526.946,632.734c-5.988-5.988-8.982-13.972-8.982-21.956s2.994-15.968,8.982-21.956
	l203.593-203.593c5.988-5.988,13.972-8.982,21.956-8.982h152.694c16.966,0,30.938,13.972,30.938,30.938L937.126,559.88
	L937.126,559.88z"/>
<path fill="#4D99EA" d="M654.69,896.208c-16.966,0-30.938,13.972-30.938,30.938v8.982H61.876V779.441
	c0-154.69,125.749-280.439,280.439-280.439c24.95,0,48.902,2.994,72.854,8.982c2.994,0.998,4.99,0.998,7.983,0.998
	c13.973,0,25.948-8.982,29.94-22.954c1.996-6.986,0.998-13.973-0.998-19.96c80.839-39.921,135.729-123.753,135.729-219.562
	c0-135.729-109.78-245.509-244.511-245.509S97.804,110.778,97.804,246.507c0,90.818,49.9,170.659,122.755,212.575
	c-3.992,0.998-7.984,2.994-11.976,4.99c-40.918,16.966-77.845,41.916-108.783,73.852c-31.936,31.937-55.888,67.864-73.852,108.783
	C8.982,687.625,0,732.535,0,779.441v165.668c0,29.94,23.952,53.893,53.892,53.893h577.844c29.94,0,53.893-23.952,53.893-53.893
	v-16.966C686.627,910.18,672.654,896.208,654.69,896.208z M160.679,246.507c0-48.902,18.962-94.81,53.892-128.742
	s79.84-53.893,128.743-53.893s94.811,18.962,128.742,53.893c34.931,34.93,53.893,80.838,53.893,128.742
	c0,48.902-18.962,94.811-53.893,128.743c-34.93,33.932-80.838,53.892-128.742,53.892c-48.902,0-94.811-18.962-128.743-53.892
	C179.641,340.319,160.679,294.411,160.679,246.507z"/>
</svg>
