<?xml version="1.0" encoding="utf-8"?>
<!-- Generator: Adobe Illustrator 16.0.0, SVG Export Plug-In . SVG Version: 6.00 Build 0)  -->
<!DOCTYPE svg PUBLIC "-//W3C//DTD SVG 1.1//EN" "http://www.w3.org/Graphics/SVG/1.1/DTD/svg11.dtd">
<svg version="1.1" id="图层_1" xmlns="http://www.w3.org/2000/svg" xmlns:xlink="http://www.w3.org/1999/xlink" x="0px" y="0px"
	 width="1000px" height="1000px" viewBox="0 0 1000 1000" enable-background="new 0 0 1000 1000" xml:space="preserve">
<path fill="#4D99EA" d="M508.943,52.412c-220.351,0-399.616,87.856-399.616,195.82v503.537
	c0,107.963,195.273,195.819,415.57,195.819c220.408,0,383.661-87.856,383.661-195.819V248.232
	C908.559,140.269,729.296,52.412,508.943,52.412z M492.989,116.337c207.13,0,351.646,94.413,351.646,127.961
	c0,33.438-112.553,95.832-319.737,95.832c-207.13,0-351.645-62.394-351.645-95.832C173.253,210.75,285.806,116.337,492.989,116.337z
	 M844.635,755.702c0,33.549-112.553,127.905-319.737,127.905c-207.13,0-351.645-94.356-351.645-127.851V595.889
	c73.214,45.623,224.339,63.981,351.645,63.981c127.414,0,246.523-18.358,319.737-63.981V755.702z M524.897,595.889
	c-207.13,0-351.645-62.451-351.645-95.889V340.13c73.214,45.679,224.339,63.981,351.645,63.981
	c127.414,0,246.523-18.302,319.737-63.981V500C844.635,533.438,732.082,595.889,524.897,595.889z"/>
</svg>
